font.ufo
<glyph name="quotesingle" format="1">
  <advance width="254"/>
  <unicode hex="0027"/>
  <note>
    quotesingle
  </note>
  <outline>
    <contour>
      <point x="165" y="349" type="line"/>
      <point x="173" y="444" type="line" smooth="yes"/>
      <point x="175" y="461"/>
      <point x="173" y="478"/>
      <point x="170" y="497" type="curve"/>
      <point x="83" y="497" type="line"/>
      <point x="80" y="478"/>
      <point x="79" y="461"/>
      <point x="80" y="444" type="curve" smooth="yes"/>
      <point x="88" y="349" type="line"/>
    </contour>
  </outline>
</glyph>
<glyph name="hyphen" format="1">
  <advance width="344"/>
  <unicode hex="002D"/>
  <note>
    hyphen
  </note>
  <outline>
    <contour>
      <point x="297" y="131" type="line"/>
      <point x="297" y="231" type="line"/>
      <point x="47" y="231" type="line"/>
      <point x="47" y="131" type="line"/>
    </contour>
  </outline>
</glyph>
<glyph name="period" format="1">
  <advance width="206"/>
  <unicode hex="002E"/>
  <note>
    period
  </note>
  <outline>
    <contour>
      <point x="159" y="0" type="line"/>
      <point x="159" y="102" type="line"/>
      <point x="47" y="102" type="line"/>
      <point x="47" y="0" type="line"/>
    </contour>
  </outline>
</glyph>
<glyph name="guillemotleft" format="1">
  <advance width="377"/>
  <unicode hex="00AB"/>
  <note>
    guillemotleft
  </note>
  <outline>
    <contour>
      <point x="211" y="82" type="line"/>
      <point x="139" y="180" type="line"/>
      <point x="139" y="184" type="line"/>
      <point x="211" y="282" type="line"/>
      <point x="133" y="319" type="line"/>
      <point x="33" y="182" type="line"/>
      <point x="133" y="45" type="line"/>
    </contour>
    <contour>
      <point x="346" y="90" type="line"/>
      <point x="278" y="180" type="line"/>
      <point x="278" y="184" type="line"/>
      <point x="346" y="274" type="line"/>
      <point x="268" y="311" type="line"/>
      <point x="172" y="182" type="line"/>
      <point x="268" y="53" type="line"/>
    </contour>
  </outline>
</glyph>
<glyph name="periodcentered" format="1">
  <advance width="262"/>
  <unicode hex="00B7"/>
  <note>
    periodcentered
  </note>
  <outline>
    <contour>
      <point x="185" y="196" type="curve" smooth="yes"/>
      <point x="185" y="226"/>
      <point x="163" y="248"/>
      <point x="131" y="248" type="curve" smooth="yes"/>
      <point x="99" y="248"/>
      <point x="78" y="226"/>
      <point x="78" y="196" type="curve" smooth="yes"/>
      <point x="78" y="165"/>
      <point x="99" y="144"/>
      <point x="131" y="144" type="curve" smooth="yes"/>
      <point x="163" y="144"/>
      <point x="185" y="165"/>
    </contour>
  </outline>
</glyph>
<glyph name="grAdakbindi" format="1">
  <unicode hex="0A01"/>
  <outline>
    <contour>
      <point x="49" y="596" type="curve"/>
      <point x="5" y="619" type="line"/>
      <point x="-41" y="571"/>
      <point x="-76" y="558"/>
      <point x="-134" y="561" type="curve"/>
      <point x="-158" y="576"/>
      <point x="-178" y="597"/>
      <point x="-195" y="619" type="curve"/>
      <point x="-239" y="596" type="line"/>
      <point x="-228" y="532"/>
      <point x="-175" y="481"/>
      <point x="-95" y="481" type="curve" smooth="yes"/>
      <point x="-15" y="481"/>
      <point x="38" y="532"/>
    </contour>
    <contour>
      <point x="-40" y="658" type="curve" smooth="yes"/>
      <point x="-40" y="689"/>
      <point x="-64" y="713"/>
      <point x="-95" y="713" type="curve" smooth="yes"/>
      <point x="-127" y="713"/>
      <point x="-151" y="689"/>
      <point x="-151" y="658" type="curve" smooth="yes"/>
      <point x="-151" y="626"/>
      <point x="-127" y="602"/>
      <point x="-95" y="602" type="curve" smooth="yes"/>
      <point x="-64" y="602"/>
      <point x="-40" y="626"/>
    </contour>
    <contour>
      <point x="-95" y="447" type="move" name="_top"/>
    </contour>
  </outline>
</glyph>
<glyph name="grVisarga" format="1">
  <advance width="363"/>
  <unicode hex="0A03"/>
  <outline>
    <contour>
      <point x="287" y="349" type="curve" smooth="yes"/>
      <point x="287" y="411"/>
      <point x="246" y="450"/>
      <point x="174" y="450" type="curve" smooth="yes"/>
      <point x="103" y="450"/>
      <point x="76" y="416"/>
      <point x="76" y="356" type="curve" smooth="yes"/>
      <point x="76" y="294"/>
      <point x="109" y="255"/>
      <point x="189" y="255" type="curve" smooth="yes"/>
      <point x="260" y="255"/>
      <point x="287" y="288"/>
    </contour>
    <contour>
      <point x="287" y="117" type="curve" smooth="yes"/>
      <point x="287" y="179"/>
      <point x="246" y="218"/>
      <point x="174" y="218" type="curve" smooth="yes"/>
      <point x="103" y="218"/>
      <point x="76" y="184"/>
      <point x="76" y="124" type="curve" smooth="yes"/>
      <point x="76" y="62"/>
      <point x="109" y="23"/>
      <point x="189" y="23" type="curve" smooth="yes"/>
      <point x="260" y="23"/>
      <point x="287" y="56"/>
    </contour>
    <contour>
      <point x="159" y="79" type="curve"/>
      <point x="156" y="91"/>
      <point x="154" y="107"/>
      <point x="154" y="121" type="curve" smooth="yes"/>
      <point x="154" y="154"/>
      <point x="160" y="165"/>
      <point x="182" y="165" type="curve" smooth="yes"/>
      <point x="190" y="165"/>
      <point x="196" y="163"/>
      <point x="204" y="161" type="curve"/>
      <point x="207" y="152"/>
      <point x="210" y="137"/>
      <point x="210" y="120" type="curve" smooth="yes"/>
      <point x="210" y="85"/>
      <point x="203" y="77"/>
      <point x="181" y="77" type="curve" smooth="yes"/>
      <point x="173" y="77"/>
      <point x="165" y="77"/>
    </contour>
    <contour>
      <point x="159" y="311" type="curve"/>
      <point x="156" y="323"/>
      <point x="154" y="339"/>
      <point x="154" y="353" type="curve" smooth="yes"/>
      <point x="154" y="386"/>
      <point x="160" y="397"/>
      <point x="182" y="397" type="curve" smooth="yes"/>
      <point x="190" y="397"/>
      <point x="196" y="395"/>
      <point x="204" y="393" type="curve"/>
      <point x="207" y="384"/>
      <point x="210" y="369"/>
      <point x="210" y="352" type="curve" smooth="yes"/>
      <point x="210" y="317"/>
      <point x="203" y="309"/>
      <point x="181" y="309" type="curve" smooth="yes"/>
      <point x="173" y="309"/>
      <point x="165" y="309"/>
    </contour>
  </outline>
</glyph>
<glyph name="grA" format="1">
  <advance width="563"/>
  <unicode hex="0A05"/>
  <outline>
    <contour>
      <point x="354" y="272" type="curve" smooth="yes"/>
      <point x="354" y="344"/>
      <point x="333" y="394"/>
      <point x="295" y="394" type="curve" smooth="yes"/>
      <point x="259" y="394"/>
      <point x="207" y="366"/>
      <point x="131" y="301" type="curve"/>
      <point x="157" y="245" type="line"/>
      <point x="187" y="266"/>
      <point x="220" y="281"/>
      <point x="251" y="289" type="curve"/>
      <point x="257" y="276"/>
      <point x="262" y="257"/>
      <point x="264" y="238" type="curve"/>
      <point x="221" y="186"/>
      <point x="194" y="128"/>
      <point x="194" y="100" type="curve" smooth="yes"/>
      <point x="194" y="74"/>
      <point x="246" y="46"/>
      <point x="289" y="41" type="curve"/>
      <point x="331" y="109"/>
      <point x="354" y="189"/>
    </contour>
    <contour>
      <point x="186" y="307" type="curve" smooth="yes"/>
      <point x="186" y="389"/>
      <point x="129" y="447"/>
      <point x="28" y="447" type="curve" smooth="yes"/>
      <point x="-29" y="447" type="line"/>
      <point x="-29" y="363" type="line"/>
      <point x="67" y="363" type="line"/>
      <point x="73" y="336"/>
      <point x="75" y="310"/>
      <point x="75" y="281" type="curve"/>
      <point x="47" y="252"/>
      <point x="31" y="223"/>
      <point x="31" y="205" type="curve" smooth="yes"/>
      <point x="31" y="183"/>
      <point x="75" y="150"/>
      <point x="123" y="141" type="curve"/>
      <point x="157" y="183"/>
      <point x="186" y="247"/>
    </contour>
    <contour>
      <point x="444" y="262" type="curve"/>
      <point x="443" y="361" type="line"/>
      <point x="397" y="335"/>
      <point x="357" y="300"/>
      <point x="318" y="261" type="curve"/>
      <point x="338" y="217" type="line"/>
      <point x="375" y="239"/>
      <point x="405" y="251"/>
    </contour>
    <contour>
      <point x="519" y="0" type="line"/>
      <point x="519" y="363" type="line"/>
      <point x="592" y="363" type="line"/>
      <point x="592" y="447" type="line"/>
      <point x="410" y="447" type="line"/>
      <point x="410" y="0" type="line"/>
    </contour>
    <contour>
      <point x="469" y="447" type="move" name="top"/>
    </contour>
  </outline>
</glyph>
<glyph name="grAI" format="1">
  <advance width="569"/>
  <unicode hex="0A10"/>
  <outline>
    <component base="grA"/>
    <component base="grmAI" xOffset="565" yOffset="-7"/>
    <contour>
      <point x="622" y="447" type="move" name="top"/>
    </contour>
  </outline>
</glyph>
<glyph name="grOO" format="1">
  <advance width="498"/>
  <unicode hex="0A13"/>
  <outline>
    <contour>
      <point x="438" y="119" type="curve" smooth="yes"/>
      <point x="438" y="179"/>
      <point x="398" y="231"/>
      <point x="348" y="257" type="curve"/>
      <point x="300" y="214" type="line"/>
      <point x="317" y="195"/>
      <point x="326" y="170"/>
      <point x="326" y="147" type="curve" smooth="yes"/>
      <point x="326" y="109"/>
      <point x="306" y="80"/>
      <point x="196" y="80" type="curve"/>
      <point x="165" y="140"/>
      <point x="145" y="215"/>
      <point x="145" y="309" type="curve" smooth="yes"/>
      <point x="145" y="467"/>
      <point x="186" y="547"/>
      <point x="298" y="547" type="curve" smooth="yes"/>
      <point x="344" y="547"/>
      <point x="386" y="536"/>
      <point x="448" y="511" type="curve"/>
      <point x="484" y="573" type="line"/>
      <point x="415" y="606"/>
      <point x="360" y="623"/>
      <point x="289" y="623" type="curve" smooth="yes"/>
      <point x="125" y="623"/>
      <point x="32" y="508"/>
      <point x="32" y="315" type="curve" smooth="yes"/>
      <point x="32" y="161"/>
      <point x="115" y="-4"/>
      <point x="289" y="-4" type="curve" smooth="yes"/>
      <point x="388" y="-4"/>
      <point x="438" y="54"/>
    </contour>
    <contour>
      <point x="263" y="194" type="line" smooth="yes"/>
      <point x="406" y="195"/>
      <point x="471" y="281"/>
      <point x="471" y="376" type="curve"/>
      <point x="363" y="376" type="line"/>
      <point x="363" y="327"/>
      <point x="346" y="277"/>
      <point x="263" y="277" type="curve" smooth="yes"/>
      <point x="112" y="277" type="line"/>
      <point x="112" y="194" type="line"/>
    </contour>
    <contour>
      <point x="527" y="363" type="line"/>
      <point x="527" y="447" type="line"/>
      <point x="-29" y="447" type="line"/>
      <point x="-29" y="363" type="line"/>
    </contour>
  </outline>
</glyph>
<glyph name="grKA" format="1">
  <advance width="471"/>
  <unicode hex="0A15"/>
  <outline>
    <contour>
      <point x="447" y="12" type="line"/>
      <point x="398" y="220"/>
      <point x="305" y="305"/>
      <point x="175" y="305" type="curve" smooth="yes"/>
      <point x="81" y="305"/>
      <point x="22" y="250"/>
      <point x="22" y="172" type="curve" smooth="yes"/>
      <point x="22" y="87"/>
      <point x="99" y="33"/>
      <point x="191" y="33" type="curve" smooth="yes"/>
      <point x="330" y="33"/>
      <point x="397" y="128"/>
      <point x="397" y="271" type="curve" smooth="yes"/>
      <point x="397" y="307"/>
      <point x="393" y="342"/>
      <point x="386" y="384" type="curve"/>
      <point x="275" y="384" type="line"/>
      <point x="282" y="341"/>
      <point x="286" y="300"/>
      <point x="286" y="263" type="curve" smooth="yes"/>
      <point x="286" y="171"/>
      <point x="257" y="106"/>
      <point x="169" y="106" type="curve" smooth="yes"/>
      <point x="156" y="106"/>
      <point x="140" y="108"/>
      <point x="131" y="111" type="curve"/>
      <point x="128" y="117"/>
      <point x="127" y="128"/>
      <point x="127" y="141" type="curve" smooth="yes"/>
      <point x="127" y="195"/>
      <point x="155" y="221"/>
      <point x="202" y="221" type="curve" smooth="yes"/>
      <point x="231" y="221"/>
      <point x="256" y="210"/>
      <point x="282" y="189" type="curve"/>
      <point x="391" y="-7" type="line"/>
    </contour>
    <contour>
      <point x="500" y="363" type="line"/>
      <point x="500" y="447" type="line"/>
      <point x="-29" y="447" type="line"/>
      <point x="-29" y="363" type="line"/>
    </contour>
    <contour>
      <point x="331" y="447" type="move" name="top"/>
    </contour>
    <contour>
      <point x="232" y="0" type="move" name="bottom"/>
    </contour>
  </outline>
</glyph>
<glyph name="grGA" format="1">
  <advance width="585"/>
  <unicode hex="0A17"/>
  <outline>
    <contour>
      <point x="346" y="146" type="curve" smooth="yes"/>
      <point x="346" y="363" type="line"/>
      <point x="433" y="363" type="line"/>
      <point x="433" y="0" type="line"/>
      <point x="542" y="0" type="line"/>
      <point x="542" y="363" type="line"/>
      <point x="614" y="363" type="line"/>
      <point x="614" y="447" type="line"/>
      <point x="-29" y="447" type="line"/>
      <point x="-29" y="363" type="line"/>
      <point x="237" y="363" type="line"/>
      <point x="237" y="291" type="line"/>
      <point x="150" y="291" type="line" smooth="yes"/>
      <point x="77" y="291"/>
      <point x="25" y="250"/>
      <point x="25" y="178" type="curve" smooth="yes"/>
      <point x="25" y="80"/>
      <point x="141" y="-4"/>
      <point x="229" y="-4" type="curve" smooth="yes"/>
      <point x="297" y="-4"/>
      <point x="346" y="38"/>
    </contour>
    <contour>
      <point x="137" y="91" type="curve"/>
      <point x="135" y="113"/>
      <point x="133" y="129"/>
      <point x="133" y="150" type="curve" smooth="yes"/>
      <point x="133" y="185"/>
      <point x="148" y="208"/>
      <point x="191" y="208" type="curve" smooth="yes"/>
      <point x="237" y="208" type="line"/>
      <point x="237" y="146" type="line" smooth="yes"/>
      <point x="237" y="101"/>
      <point x="228" y="76"/>
      <point x="191" y="76" type="curve" smooth="yes"/>
      <point x="172" y="76"/>
      <point x="151" y="81"/>
    </contour>
  </outline>
</glyph>
<glyph name="grGHA" format="1">
  <advance width="628"/>
  <unicode hex="0A18"/>
  <outline>
    <contour>
      <point x="584" y="0" type="line"/>
      <point x="584" y="363" type="line"/>
      <point x="657" y="363" type="line"/>
      <point x="657" y="447" type="line"/>
      <point x="476" y="447" type="line"/>
      <point x="476" y="215" type="line"/>
      <point x="452" y="188"/>
      <point x="402" y="167"/>
      <point x="366" y="167" type="curve" smooth="yes"/>
      <point x="352" y="167"/>
      <point x="341" y="170"/>
      <point x="333" y="176" type="curve"/>
      <point x="295" y="146" type="line"/>
      <point x="324" y="91"/>
      <point x="358" y="71"/>
      <point x="392" y="71" type="curve" smooth="yes"/>
      <point x="417" y="71"/>
      <point x="455" y="83"/>
      <point x="477" y="95" type="curve"/>
      <point x="480" y="93" type="line"/>
      <point x="476" y="26" type="line"/>
      <point x="476" y="0" type="line"/>
    </contour>
    <contour>
      <point x="392" y="327" type="curve" smooth="yes"/>
      <point x="392" y="372"/>
      <point x="383" y="407"/>
      <point x="371" y="441" type="curve"/>
      <point x="341" y="455"/>
      <point x="307" y="455"/>
      <point x="278" y="441" type="curve"/>
      <point x="269" y="395"/>
      <point x="265" y="345"/>
      <point x="265" y="319" type="curve" smooth="yes"/>
      <point x="265" y="276"/>
      <point x="268" y="240"/>
      <point x="274" y="209" type="curve"/>
      <point x="233" y="167"/>
      <point x="191" y="148"/>
      <point x="161" y="148" type="curve" smooth="yes"/>
      <point x="146" y="148"/>
      <point x="135" y="152"/>
      <point x="128" y="161" type="curve"/>
      <point x="170" y="212"/>
      <point x="193" y="270"/>
      <point x="193" y="323" type="curve" smooth="yes"/>
      <point x="193" y="392"/>
      <point x="112" y="447"/>
      <point x="21" y="447" type="curve" smooth="yes"/>
      <point x="-29" y="447" type="line"/>
      <point x="-29" y="363" type="line" smooth="yes"/>
      <point x="34" y="363" type="line" smooth="yes"/>
      <point x="52" y="363"/>
      <point x="70" y="363"/>
      <point x="88" y="363" type="curve"/>
      <point x="92" y="355"/>
      <point x="94" y="345"/>
      <point x="94" y="335" type="curve" smooth="yes"/>
      <point x="94" y="305"/>
      <point x="79" y="286"/>
      <point x="41" y="225" type="curve" smooth="yes"/>
      <point x="20" y="191"/>
      <point x="19" y="186"/>
      <point x="19" y="175" type="curve" smooth="yes"/>
      <point x="19" y="130"/>
      <point x="88" y="71"/>
      <point x="179" y="71" type="curve" smooth="yes"/>
      <point x="300" y="71"/>
      <point x="392" y="183"/>
    </contour>
  </outline>
</glyph>
<glyph name="grNGA" format="1">
  <advance width="436"/>
  <unicode hex="0A19"/>
  <outline>
    <contour>
      <point x="408" y="175" type="curve" smooth="yes"/>
      <point x="408" y="249"/>
      <point x="353" y="308"/>
      <point x="263" y="308" type="curve" smooth="yes"/>
      <point x="181" y="308" type="line"/>
      <point x="181" y="375" type="line"/>
      <point x="73" y="375" type="line"/>
      <point x="73" y="232" type="line"/>
      <point x="292" y="232" type="line"/>
      <point x="298" y="215"/>
      <point x="301" y="195"/>
      <point x="301" y="175" type="curve" smooth="yes"/>
      <point x="301" y="115"/>
      <point x="262" y="69"/>
      <point x="179" y="69" type="curve" smooth="yes"/>
      <point x="166" y="69"/>
      <point x="156" y="70"/>
      <point x="144" y="73" type="curve"/>
      <point x="141" y="79"/>
      <point x="141" y="86"/>
      <point x="141" y="91" type="curve" smooth="yes"/>
      <point x="141" y="110"/>
      <point x="156" y="118"/>
      <point x="176" y="118" type="curve" smooth="yes"/>
      <point x="189" y="118"/>
      <point x="201" y="116"/>
      <point x="217" y="111" type="curve"/>
      <point x="370" y="-7" type="line"/>
      <point x="385" y="-4"/>
      <point x="398" y="8"/>
      <point x="409" y="28" type="curve"/>
      <point x="283" y="135" type="line" smooth="yes"/>
      <point x="239" y="173"/>
      <point x="199" y="191"/>
      <point x="148" y="191" type="curve" smooth="yes"/>
      <point x="72" y="191"/>
      <point x="32" y="148"/>
      <point x="32" y="94" type="curve" smooth="yes"/>
      <point x="32" y="39"/>
      <point x="83" y="-4"/>
      <point x="180" y="-4" type="curve" smooth="yes"/>
      <point x="294" y="-4"/>
      <point x="408" y="70"/>
    </contour>
    <contour>
      <point x="465" y="363" type="line"/>
      <point x="465" y="447" type="line"/>
      <point x="-29" y="447" type="line"/>
      <point x="-29" y="363" type="line"/>
    </contour>
    <contour>
      <point x="304" y="447" type="move" name="top"/>
    </contour>
    <contour>
      <point x="232" y="0" type="move" name="bottom"/>
    </contour>
  </outline>
</glyph>
<glyph name="grCA" format="1">
  <advance width="436"/>
  <unicode hex="0A1A"/>
  <outline>
    <contour>
      <point x="393" y="146" type="curve" smooth="yes"/>
      <point x="393" y="363" type="line"/>
      <point x="465" y="363" type="line"/>
      <point x="465" y="447" type="line"/>
      <point x="-29" y="447" type="line"/>
      <point x="-29" y="363" type="line"/>
      <point x="284" y="363" type="line"/>
      <point x="284" y="272" type="line"/>
      <point x="158" y="272" type="line"/>
      <point x="84" y="319" type="line"/>
      <point x="53" y="319"/>
      <point x="27" y="295"/>
      <point x="16" y="259" type="curve"/>
      <point x="23" y="223"/>
      <point x="46" y="194"/>
      <point x="83" y="183" type="curve"/>
      <point x="92" y="65"/>
      <point x="159" y="-4"/>
      <point x="260" y="-4" type="curve" smooth="yes"/>
      <point x="340" y="-4"/>
      <point x="393" y="47"/>
    </contour>
    <contour>
      <point x="186" y="151" type="curve" smooth="yes"/>
      <point x="181" y="189" type="line"/>
      <point x="284" y="189" type="line"/>
      <point x="284" y="141" type="line" smooth="yes"/>
      <point x="284" y="101"/>
      <point x="276" y="80"/>
      <point x="241" y="76" type="curve" smooth="yes"/>
      <point x="214" y="82"/>
      <point x="193" y="101"/>
    </contour>
    <contour>
      <point x="339" y="447" type="move" name="top"/>
    </contour>
    <contour>
      <point x="260" y="0" type="move" name="bottom"/>
    </contour>
  </outline>
</glyph>
<glyph name="grCHA" format="1">
  <advance width="467"/>
  <unicode hex="0A1B"/>
  <outline>
    <contour>
      <point x="448" y="104" type="curve" smooth="yes"/>
      <point x="448" y="170"/>
      <point x="390" y="202"/>
      <point x="297" y="202" type="curve" smooth="yes"/>
      <point x="186" y="202" type="line"/>
      <point x="183" y="208"/>
      <point x="181" y="215"/>
      <point x="181" y="222" type="curve" smooth="yes"/>
      <point x="181" y="234"/>
      <point x="189" y="246"/>
      <point x="210" y="246" type="curve" smooth="yes"/>
      <point x="404" y="246" type="line"/>
      <point x="404" y="396" type="line"/>
      <point x="295" y="396" type="line"/>
      <point x="295" y="318" type="line"/>
      <point x="174" y="318" type="line" smooth="yes"/>
      <point x="103" y="318"/>
      <point x="64" y="278"/>
      <point x="64" y="230" type="curve" smooth="yes"/>
      <point x="64" y="176"/>
      <point x="110" y="130"/>
      <point x="181" y="130" type="curve" smooth="yes"/>
      <point x="294" y="130" type="line" smooth="yes"/>
      <point x="311" y="130"/>
      <point x="326" y="128"/>
      <point x="336" y="126" type="curve"/>
      <point x="338" y="120"/>
      <point x="339" y="114"/>
      <point x="339" y="107" type="curve" smooth="yes"/>
      <point x="339" y="82"/>
      <point x="320" y="68"/>
      <point x="241" y="68" type="curve" smooth="yes"/>
      <point x="191" y="68"/>
      <point x="155" y="72"/>
      <point x="133" y="77" type="curve"/>
      <point x="131" y="84"/>
      <point x="129" y="92"/>
      <point x="129" y="102" type="curve" smooth="yes"/>
      <point x="129" y="116"/>
      <point x="133" y="128"/>
      <point x="141" y="141" type="curve"/>
      <point x="93" y="178" type="line"/>
      <point x="51" y="165"/>
      <point x="22" y="138"/>
      <point x="22" y="96" type="curve" smooth="yes"/>
      <point x="22" y="19"/>
      <point x="123" y="-4"/>
      <point x="241" y="-4" type="curve" smooth="yes"/>
      <point x="383" y="-4"/>
      <point x="448" y="38"/>
    </contour>
    <contour>
      <point x="282" y="41" type="line"/>
      <point x="282" y="159" type="line"/>
      <point x="198" y="159" type="line"/>
      <point x="198" y="41" type="line"/>
    </contour>
    <contour>
      <point x="496" y="363" type="line"/>
      <point x="496" y="447" type="line"/>
      <point x="-29" y="447" type="line"/>
      <point x="-29" y="363" type="line"/>
    </contour>
    <contour>
      <point x="349" y="447" type="move" name="top"/>
    </contour>
    <contour>
      <point x="239" y="0" type="move" name="bottom"/>
    </contour>
  </outline>
</glyph>
<glyph name="grJHA" format="1">
  <advance width="418"/>
  <unicode hex="0A1D"/>
  <outline>
    <contour>
      <point x="394" y="167" type="curve" smooth="yes"/>
      <point x="394" y="218"/>
      <point x="357" y="263"/>
      <point x="283" y="286" type="curve"/>
      <point x="199" y="247" type="line"/>
      <point x="149" y="290" type="line"/>
      <point x="107" y="285"/>
      <point x="70" y="274"/>
      <point x="27" y="252" type="curve"/>
      <point x="53" y="189" type="line"/>
      <point x="91" y="202"/>
      <point x="141" y="209"/>
      <point x="188" y="209" type="curve" smooth="yes"/>
      <point x="225" y="209"/>
      <point x="261" y="204"/>
      <point x="286" y="192" type="curve"/>
      <point x="287" y="183"/>
      <point x="288" y="176"/>
      <point x="287" y="169" type="curve" smooth="yes"/>
      <point x="284" y="136"/>
      <point x="260" y="117"/>
      <point x="186" y="112" type="curve"/>
      <point x="131" y="159" type="line"/>
      <point x="86" y="162"/>
      <point x="51" y="143"/>
      <point x="51" y="109" type="curve" smooth="yes"/>
      <point x="51" y="94"/>
      <point x="57" y="75"/>
      <point x="75" y="66" type="curve"/>
      <point x="117" y="57"/>
      <point x="167" y="52"/>
      <point x="204" y="52" type="curve" smooth="yes"/>
      <point x="309" y="52"/>
      <point x="394" y="90"/>
    </contour>
    <contour>
      <point x="291" y="23" type="curve"/>
      <point x="218" y="80" type="line"/>
      <point x="119" y="70" type="line"/>
      <point x="239" y="-7" type="line"/>
      <point x="265" y="-5"/>
      <point x="283" y="7"/>
    </contour>
    <contour>
      <point x="418" y="431" type="curve"/>
      <point x="305" y="431" type="line"/>
      <point x="306" y="344"/>
      <point x="232" y="281"/>
      <point x="195" y="272" type="curve"/>
      <point x="160" y="294"/>
      <point x="111" y="344"/>
      <point x="109" y="431" type="curve"/>
      <point x="11" y="431" type="line"/>
      <point x="25" y="312"/>
      <point x="114" y="224"/>
      <point x="214" y="224" type="curve" smooth="yes"/>
      <point x="320" y="224"/>
      <point x="406" y="299"/>
    </contour>
    <contour>
      <point x="447" y="363" type="line"/>
      <point x="447" y="447" type="line"/>
      <point x="-29" y="447" type="line"/>
      <point x="-29" y="363" type="line"/>
    </contour>
    <contour>
      <point x="362" y="447" type="move" name="top"/>
    </contour>
    <contour>
      <point x="236" y="0" type="move" name="bottom"/>
    </contour>
  </outline>
</glyph>
<glyph name="grNYA" format="1">
  <advance width="418"/>
  <unicode hex="0A1E"/>
  <outline>
    <contour>
      <point x="400" y="18" type="curve"/>
      <point x="377" y="88" type="line"/>
      <point x="347" y="80"/>
      <point x="324" y="78"/>
      <point x="305" y="78" type="curve" smooth="yes"/>
      <point x="265" y="78"/>
      <point x="231" y="88"/>
      <point x="231" y="115" type="curve" smooth="yes"/>
      <point x="231" y="117"/>
      <point x="231" y="120"/>
      <point x="231" y="122" type="curve"/>
      <point x="283" y="123"/>
      <point x="331" y="133"/>
      <point x="367" y="145" type="curve"/>
      <point x="382" y="178"/>
      <point x="365" y="222"/>
      <point x="328" y="229" type="curve"/>
      <point x="193" y="183" type="line"/>
      <point x="153" y="181"/>
      <point x="141" y="203"/>
      <point x="141" y="221" type="curve" smooth="yes"/>
      <point x="141" y="240"/>
      <point x="153" y="257"/>
      <point x="180" y="257" type="curve" smooth="yes"/>
      <point x="371" y="257" type="line"/>
      <point x="371" y="363" type="line"/>
      <point x="447" y="363" type="line"/>
      <point x="447" y="447" type="line"/>
      <point x="-29" y="447" type="line"/>
      <point x="-29" y="363" type="line"/>
      <point x="29" y="363" type="line"/>
      <point x="35" y="327"/>
      <point x="58" y="306"/>
      <point x="88" y="294" type="curve"/>
      <point x="88" y="289" type="line"/>
      <point x="51" y="273"/>
      <point x="32" y="247"/>
      <point x="32" y="210" type="curve" smooth="yes"/>
      <point x="32" y="156"/>
      <point x="76" y="131"/>
      <point x="160" y="124" type="curve"/>
      <point x="158" y="116"/>
      <point x="157" y="102"/>
      <point x="157" y="94" type="curve" smooth="yes"/>
      <point x="157" y="47"/>
      <point x="186" y="-4"/>
      <point x="293" y="-4" type="curve" smooth="yes"/>
      <point x="336" y="-4"/>
      <point x="372" y="6"/>
    </contour>
    <contour>
      <point x="138" y="363" type="curve"/>
      <point x="262" y="363" type="line"/>
      <point x="262" y="313" type="line"/>
      <point x="162" y="313" type="line" smooth="yes"/>
      <point x="148" y="323"/>
      <point x="138" y="338"/>
    </contour>
    <contour>
      <point x="317" y="447" type="move" name="top"/>
    </contour>
    <contour>
      <point x="232" y="0" type="move" name="bottom"/>
    </contour>
  </outline>
</glyph>
<glyph name="grTTA" format="1">
  <advance width="400"/>
  <unicode hex="0A1F"/>
  <outline>
    <contour>
      <point x="378" y="77" type="curve"/>
      <point x="291" y="127" type="line"/>
      <point x="267" y="106"/>
      <point x="239" y="86"/>
      <point x="212" y="76" type="curve"/>
      <point x="165" y="89"/>
      <point x="130" y="123"/>
      <point x="130" y="165" type="curve" smooth="yes"/>
      <point x="130" y="198"/>
      <point x="154" y="212"/>
      <point x="187" y="212" type="curve" smooth="yes"/>
      <point x="357" y="212" type="line"/>
      <point x="357" y="363" type="line"/>
      <point x="429" y="363" type="line"/>
      <point x="429" y="447" type="line"/>
      <point x="-29" y="447" type="line"/>
      <point x="-29" y="363" type="line"/>
      <point x="248" y="363" type="line"/>
      <point x="248" y="296" type="line"/>
      <point x="146" y="296" type="line" smooth="yes"/>
      <point x="73" y="296"/>
      <point x="21" y="254"/>
      <point x="21" y="189" type="curve" smooth="yes"/>
      <point x="21" y="83"/>
      <point x="144" y="-4"/>
      <point x="236" y="-4" type="curve" smooth="yes"/>
      <point x="285" y="-4"/>
      <point x="340" y="21"/>
    </contour>
    <contour>
      <point x="302" y="447" type="move" name="top"/>
    </contour>
    <contour>
      <point x="225" y="0" type="move" name="bottom"/>
    </contour>
  </outline>
</glyph>
<glyph name="grTTHA" format="1">
  <advance width="478"/>
  <unicode hex="0A20"/>
  <outline>
    <contour>
      <point x="449" y="150" type="curve" smooth="yes"/>
      <point x="449" y="242"/>
      <point x="365" y="304"/>
      <point x="239" y="304" type="curve" smooth="yes"/>
      <point x="113" y="304"/>
      <point x="29" y="242"/>
      <point x="29" y="150" type="curve" smooth="yes"/>
      <point x="29" y="57"/>
      <point x="113" y="-4"/>
      <point x="239" y="-4" type="curve" smooth="yes"/>
      <point x="365" y="-4"/>
      <point x="449" y="57"/>
    </contour>
    <contour>
      <point x="152" y="92" type="curve"/>
      <point x="145" y="108"/>
      <point x="140" y="126"/>
      <point x="140" y="150" type="curve" smooth="yes"/>
      <point x="140" y="204"/>
      <point x="168" y="226"/>
      <point x="239" y="226" type="curve" smooth="yes"/>
      <point x="274" y="226"/>
      <point x="298" y="223"/>
      <point x="326" y="215" type="curve"/>
      <point x="333" y="199"/>
      <point x="338" y="177"/>
      <point x="338" y="150" type="curve" smooth="yes"/>
      <point x="338" y="101"/>
      <point x="310" y="80"/>
      <point x="239" y="80" type="curve" smooth="yes"/>
      <point x="204" y="80"/>
      <point x="180" y="84"/>
    </contour>
    <contour>
      <point x="507" y="363" type="line"/>
      <point x="507" y="447" type="line"/>
      <point x="-29" y="447" type="line"/>
      <point x="-29" y="363" type="line"/>
    </contour>
    <contour>
      <point x="183" y="375" type="line"/>
      <point x="183" y="278" type="line"/>
      <point x="296" y="278" type="line"/>
      <point x="296" y="375" type="line"/>
    </contour>
    <contour>
      <point x="338" y="447" type="move" name="top"/>
    </contour>
    <contour>
      <point x="239" y="0" type="move" name="bottom"/>
    </contour>
  </outline>
</glyph>
<glyph name="grDDA" format="1">
  <advance width="474"/>
  <unicode hex="0A21"/>
  <outline>
    <contour>
      <point x="447" y="151" type="curve" smooth="yes"/>
      <point x="447" y="237"/>
      <point x="375" y="308"/>
      <point x="202" y="308" type="curve" smooth="yes"/>
      <point x="90" y="308"/>
      <point x="63" y="283"/>
      <point x="63" y="254" type="curve" smooth="yes"/>
      <point x="63" y="244"/>
      <point x="65" y="236"/>
      <point x="69" y="227" type="curve"/>
      <point x="97" y="217"/>
      <point x="155" y="212"/>
      <point x="191" y="212" type="curve" smooth="yes"/>
      <point x="228" y="212"/>
      <point x="273" y="219"/>
      <point x="314" y="230" type="curve"/>
      <point x="329" y="212"/>
      <point x="339" y="189"/>
      <point x="339" y="163" type="curve" smooth="yes"/>
      <point x="339" y="107"/>
      <point x="286" y="65"/>
      <point x="205" y="65" type="curve" smooth="yes"/>
      <point x="173" y="65"/>
      <point x="157" y="66"/>
      <point x="139" y="69" type="curve"/>
      <point x="135" y="75"/>
      <point x="133" y="80"/>
      <point x="133" y="88" type="curve" smooth="yes"/>
      <point x="133" y="102"/>
      <point x="152" y="114"/>
      <point x="187" y="114" type="curve" smooth="yes"/>
      <point x="233" y="114"/>
      <point x="267" y="103"/>
      <point x="325" y="78" type="curve"/>
      <point x="356" y="125" type="line"/>
      <point x="301" y="156"/>
      <point x="244" y="180"/>
      <point x="162" y="180" type="curve" smooth="yes"/>
      <point x="79" y="180"/>
      <point x="25" y="144"/>
      <point x="25" y="89" type="curve" smooth="yes"/>
      <point x="25" y="35"/>
      <point x="75" y="-4"/>
      <point x="210" y="-4" type="curve" smooth="yes"/>
      <point x="347" y="-4"/>
      <point x="447" y="61"/>
    </contour>
    <contour>
      <point x="408" y="380" type="curve"/>
      <point x="289" y="380" type="line"/>
      <point x="288" y="348"/>
      <point x="281" y="316"/>
      <point x="266" y="288" type="curve"/>
      <point x="348" y="257" type="line"/>
      <point x="376" y="286"/>
      <point x="403" y="332"/>
    </contour>
    <contour>
      <point x="503" y="363" type="line"/>
      <point x="503" y="447" type="line"/>
      <point x="-29" y="447" type="line"/>
      <point x="-29" y="363" type="line"/>
    </contour>
    <contour>
      <point x="349" y="447" type="move" name="top"/>
    </contour>
    <contour>
      <point x="242" y="0" type="move" name="bottom"/>
    </contour>
  </outline>
</glyph>
<glyph name="grDDHA" format="1">
  <advance width="471"/>
  <unicode hex="0A22"/>
  <outline>
    <contour>
      <point x="453" y="91" type="curve" smooth="yes"/>
      <point x="453" y="142"/>
      <point x="405" y="186"/>
      <point x="316" y="186" type="curve" smooth="yes"/>
      <point x="256" y="186"/>
      <point x="215" y="170"/>
      <point x="166" y="138" type="curve"/>
      <point x="202" y="73" type="line"/>
      <point x="236" y="100"/>
      <point x="266" y="113"/>
      <point x="301" y="113" type="curve" smooth="yes"/>
      <point x="318" y="113"/>
      <point x="328" y="112"/>
      <point x="340" y="109" type="curve"/>
      <point x="343" y="103"/>
      <point x="344" y="96"/>
      <point x="344" y="89" type="curve" smooth="yes"/>
      <point x="344" y="73"/>
      <point x="329" y="62"/>
      <point x="295" y="62" type="curve" smooth="yes"/>
      <point x="219" y="62"/>
      <point x="159" y="112"/>
      <point x="149" y="220" type="curve"/>
      <point x="382" y="220" type="line"/>
      <point x="382" y="375" type="line"/>
      <point x="273" y="375" type="line"/>
      <point x="273" y="297" type="line"/>
      <point x="131" y="297" type="line"/>
      <point x="74" y="334" type="line"/>
      <point x="43" y="334"/>
      <point x="17" y="312"/>
      <point x="6" y="278" type="curve"/>
      <point x="11" y="244"/>
      <point x="32" y="220"/>
      <point x="57" y="211" type="curve"/>
      <point x="67" y="70"/>
      <point x="177" y="-4"/>
      <point x="310" y="-4" type="curve" smooth="yes"/>
      <point x="408" y="-4"/>
      <point x="453" y="41"/>
    </contour>
    <contour>
      <point x="475" y="363" type="line"/>
      <point x="475" y="447" type="line"/>
      <point x="-34" y="447" type="line"/>
      <point x="-34" y="363" type="line"/>
    </contour>
    <contour>
      <point x="328" y="447" type="move" name="top"/>
    </contour>
    <contour>
      <point x="254" y="0" type="move" name="bottom"/>
    </contour>
  </outline>
</glyph>
<glyph name="grNNA" format="1">
  <advance width="451"/>
  <unicode hex="0A23"/>
  <outline>
    <contour>
      <point x="429" y="91" type="curve"/>
      <point x="339" y="144" type="line"/>
      <point x="311" y="114"/>
      <point x="270" y="87"/>
      <point x="234" y="76" type="curve"/>
      <point x="189" y="82"/>
      <point x="130" y="120"/>
      <point x="130" y="165" type="curve" smooth="yes"/>
      <point x="130" y="198"/>
      <point x="154" y="212"/>
      <point x="187" y="212" type="curve" smooth="yes"/>
      <point x="272" y="212" type="line"/>
      <point x="272" y="299" type="line"/>
      <point x="275" y="301" type="line"/>
      <point x="357" y="239" type="line"/>
      <point x="390" y="240"/>
      <point x="426" y="263"/>
      <point x="439" y="294" type="curve"/>
      <point x="335" y="361" type="line"/>
      <point x="336" y="363" type="line"/>
      <point x="480" y="363" type="line"/>
      <point x="480" y="447" type="line"/>
      <point x="-29" y="447" type="line"/>
      <point x="-29" y="363" type="line"/>
      <point x="173" y="363" type="line"/>
      <point x="173" y="296" type="line"/>
      <point x="146" y="296" type="line" smooth="yes"/>
      <point x="73" y="296"/>
      <point x="21" y="254"/>
      <point x="21" y="189" type="curve" smooth="yes"/>
      <point x="21" y="76"/>
      <point x="165" y="-4"/>
      <point x="257" y="-4" type="curve" smooth="yes"/>
      <point x="321" y="-4"/>
      <point x="390" y="34"/>
    </contour>
    <contour>
      <point x="303" y="447" type="move" name="top"/>
    </contour>
    <contour>
      <point x="238" y="0" type="move" name="bottom"/>
    </contour>
  </outline>
</glyph>
<glyph name="grTA" format="1">
  <advance width="476"/>
  <unicode hex="0A24"/>
  <outline>
    <contour>
      <point x="447" y="138" type="curve" smooth="yes"/>
      <point x="447" y="223"/>
      <point x="350" y="280"/>
      <point x="219" y="280" type="curve" smooth="yes"/>
      <point x="91" y="280"/>
      <point x="77" y="248"/>
      <point x="77" y="213" type="curve" smooth="yes"/>
      <point x="77" y="203"/>
      <point x="78" y="195"/>
      <point x="81" y="186" type="curve"/>
      <point x="110" y="173"/>
      <point x="152" y="166"/>
      <point x="193" y="166" type="curve" smooth="yes"/>
      <point x="240" y="166"/>
      <point x="288" y="176"/>
      <point x="321" y="192" type="curve"/>
      <point x="331" y="181"/>
      <point x="339" y="165"/>
      <point x="339" y="149" type="curve" smooth="yes"/>
      <point x="339" y="109"/>
      <point x="307" y="81"/>
      <point x="189" y="81" type="curve"/>
      <point x="141" y="95"/>
      <point x="102" y="112"/>
      <point x="57" y="136" type="curve"/>
      <point x="16" y="73" type="line"/>
      <point x="62" y="25"/>
      <point x="149" y="-4"/>
      <point x="232" y="-4" type="curve" smooth="yes"/>
      <point x="342" y="-4"/>
      <point x="447" y="44"/>
    </contour>
    <contour>
      <point x="405" y="380" type="curve"/>
      <point x="296" y="380" type="line"/>
      <point x="296" y="344"/>
      <point x="288" y="297"/>
      <point x="278" y="259" type="curve"/>
      <point x="358" y="235" type="line"/>
      <point x="386" y="261"/>
      <point x="405" y="330"/>
    </contour>
    <contour>
      <point x="505" y="363" type="line"/>
      <point x="505" y="447" type="line"/>
      <point x="-29" y="447" type="line"/>
      <point x="-29" y="363" type="line"/>
    </contour>
    <contour>
      <point x="350" y="447" type="move" name="top"/>
    </contour>
    <contour>
      <point x="247" y="0" type="move" name="bottom"/>
    </contour>
  </outline>
</glyph>
<glyph name="grDA" format="1">
  <advance width="413"/>
  <unicode hex="0A26"/>
  <outline>
    <contour>
      <point x="396" y="77" type="curve"/>
      <point x="346" y="118" type="line"/>
      <point x="299" y="93"/>
      <point x="271" y="80"/>
      <point x="252" y="76" type="curve"/>
      <point x="211" y="82"/>
      <point x="187" y="103"/>
      <point x="181" y="146" type="curve" smooth="yes"/>
      <point x="174" y="189" type="line"/>
      <point x="364" y="189" type="line"/>
      <point x="364" y="375" type="line"/>
      <point x="255" y="375" type="line"/>
      <point x="255" y="272" type="line"/>
      <point x="151" y="272" type="line"/>
      <point x="77" y="319" type="line"/>
      <point x="46" y="319"/>
      <point x="20" y="295"/>
      <point x="9" y="259" type="curve"/>
      <point x="16" y="223"/>
      <point x="39" y="194"/>
      <point x="76" y="183" type="curve"/>
      <point x="84" y="65"/>
      <point x="159" y="-4"/>
      <point x="260" y="-4" type="curve" smooth="yes"/>
      <point x="317" y="-4"/>
      <point x="358" y="21"/>
    </contour>
    <contour>
      <point x="442" y="363" type="line"/>
      <point x="442" y="447" type="line"/>
      <point x="-29" y="447" type="line"/>
      <point x="-29" y="363" type="line"/>
    </contour>
    <contour>
      <point x="310" y="447" type="move" name="top"/>
    </contour>
    <contour>
      <point x="232" y="0" type="move" name="bottom"/>
    </contour>
  </outline>
</glyph>
<glyph name="grNA" format="1">
  <advance width="479"/>
  <unicode hex="0A28"/>
  <outline>
    <contour>
      <point x="189" y="30" type="curve"/>
      <point x="136" y="80"/>
      <point x="123" y="102"/>
      <point x="123" y="143" type="curve" smooth="yes"/>
      <point x="123" y="207"/>
      <point x="167" y="226"/>
      <point x="239" y="226" type="curve" smooth="yes"/>
      <point x="270" y="226"/>
      <point x="302" y="221"/>
      <point x="325" y="212" type="curve"/>
      <point x="334" y="193"/>
      <point x="337" y="174"/>
      <point x="337" y="157" type="curve" smooth="yes"/>
      <point x="337" y="111"/>
      <point x="314" y="75"/>
      <point x="270" y="37" type="curve"/>
      <point x="286" y="15"/>
      <point x="318" y="0"/>
      <point x="352" y="-8" type="curve"/>
      <point x="410" y="19"/>
      <point x="449" y="73"/>
      <point x="449" y="143" type="curve" smooth="yes"/>
      <point x="449" y="248"/>
      <point x="358" y="304"/>
      <point x="239" y="304" type="curve" smooth="yes"/>
      <point x="120" y="304"/>
      <point x="29" y="248"/>
      <point x="29" y="143" type="curve" smooth="yes"/>
      <point x="29" y="86"/>
      <point x="51" y="40"/>
      <point x="128" y="-8" type="curve"/>
      <point x="149" y="-3"/>
      <point x="169" y="9"/>
    </contour>
    <contour>
      <point x="302" y="278" type="line"/>
      <point x="302" y="387" type="line"/>
      <point x="190" y="387" type="line"/>
      <point x="190" y="278" type="line"/>
    </contour>
    <contour>
      <point x="508" y="363" type="line"/>
      <point x="508" y="447" type="line"/>
      <point x="-29" y="447" type="line"/>
      <point x="-29" y="363" type="line"/>
    </contour>
    <contour>
      <point x="336" y="447" type="move" name="top"/>
    </contour>
    <contour>
      <point x="239" y="0" type="move" name="bottom"/>
    </contour>
  </outline>
</glyph>
<glyph name="grPA" format="1">
  <advance width="450"/>
  <unicode hex="0A2A"/>
  <outline>
    <contour>
      <point x="406" y="0" type="line"/>
      <point x="406" y="363" type="line"/>
      <point x="479" y="363" type="line"/>
      <point x="479" y="447" type="line"/>
      <point x="297" y="447" type="line"/>
      <point x="297" y="196" type="line"/>
      <point x="242" y="161"/>
      <point x="197" y="148"/>
      <point x="161" y="148" type="curve" smooth="yes"/>
      <point x="146" y="148"/>
      <point x="135" y="152"/>
      <point x="128" y="161" type="curve"/>
      <point x="170" y="212"/>
      <point x="193" y="249"/>
      <point x="193" y="301" type="curve" smooth="yes"/>
      <point x="193" y="370"/>
      <point x="112" y="447"/>
      <point x="21" y="447" type="curve" smooth="yes"/>
      <point x="-29" y="447" type="line"/>
      <point x="-29" y="363" type="line" smooth="yes"/>
      <point x="49" y="363" type="line" smooth="yes"/>
      <point x="62" y="363"/>
      <point x="75" y="363"/>
      <point x="88" y="363" type="curve"/>
      <point x="92" y="355"/>
      <point x="94" y="345"/>
      <point x="94" y="335" type="curve" smooth="yes"/>
      <point x="94" y="305"/>
      <point x="79" y="286"/>
      <point x="41" y="225" type="curve" smooth="yes"/>
      <point x="20" y="191"/>
      <point x="19" y="186"/>
      <point x="19" y="175" type="curve" smooth="yes"/>
      <point x="19" y="130"/>
      <point x="88" y="71"/>
      <point x="179" y="71" type="curve" smooth="yes"/>
      <point x="228" y="71"/>
      <point x="260" y="80"/>
      <point x="299" y="95" type="curve"/>
      <point x="302" y="93" type="line"/>
      <point x="297" y="27" type="line"/>
      <point x="297" y="0" type="line"/>
    </contour>
  </outline>
</glyph>
<glyph name="grBA" format="1">
  <advance width="455"/>
  <unicode hex="0A2C"/>
  <outline>
    <contour>
      <point x="411" y="0" type="line"/>
      <point x="411" y="363" type="line"/>
      <point x="484" y="363" type="line"/>
      <point x="484" y="447" type="line"/>
      <point x="-29" y="447" type="line"/>
      <point x="-29" y="363" type="line"/>
      <point x="33" y="363" type="line"/>
      <point x="38" y="327"/>
      <point x="59" y="291"/>
      <point x="91" y="274" type="curve"/>
      <point x="91" y="270" type="line"/>
      <point x="54" y="254"/>
      <point x="36" y="220"/>
      <point x="36" y="183" type="curve" smooth="yes"/>
      <point x="36" y="122"/>
      <point x="87" y="62"/>
      <point x="200" y="62" type="curve" smooth="yes"/>
      <point x="252" y="62"/>
      <point x="295" y="70"/>
      <point x="332" y="83" type="curve"/>
      <point x="332" y="177" type="line"/>
      <point x="294" y="156"/>
      <point x="238" y="142"/>
      <point x="194" y="142" type="curve" smooth="yes"/>
      <point x="178" y="142"/>
      <point x="165" y="144"/>
      <point x="154" y="146" type="curve"/>
      <point x="148" y="154"/>
      <point x="144" y="163"/>
      <point x="144" y="173" type="curve" smooth="yes"/>
      <point x="144" y="196"/>
      <point x="159" y="217"/>
      <point x="196" y="217" type="curve" smooth="yes"/>
      <point x="352" y="217" type="line"/>
      <point x="352" y="297" type="line"/>
      <point x="202" y="297" type="line" smooth="yes"/>
      <point x="167" y="302"/>
      <point x="145" y="320"/>
      <point x="141" y="363" type="curve"/>
      <point x="302" y="363" type="line"/>
      <point x="302" y="0" type="line"/>
    </contour>
  </outline>
</glyph>
<glyph name="grBHA" format="1">
  <advance width="454"/>
  <unicode hex="0A2D"/>
  <outline>
    <contour>
      <point x="426" y="149" type="curve" smooth="yes"/>
      <point x="426" y="257"/>
      <point x="326" y="325"/>
      <point x="203" y="325" type="curve" smooth="yes"/>
      <point x="101" y="325"/>
      <point x="47" y="284"/>
      <point x="47" y="223" type="curve" smooth="yes"/>
      <point x="47" y="161"/>
      <point x="101" y="121"/>
      <point x="189" y="120" type="curve" smooth="yes"/>
      <point x="310" y="120"/>
      <point x="376" y="238"/>
      <point x="376" y="376" type="curve"/>
      <point x="267" y="376" type="line"/>
      <point x="267" y="225"/>
      <point x="233" y="196"/>
      <point x="189" y="196" type="curve" smooth="yes"/>
      <point x="179" y="196"/>
      <point x="168" y="196"/>
      <point x="160" y="199" type="curve"/>
      <point x="157" y="204"/>
      <point x="156" y="212"/>
      <point x="156" y="219" type="curve" smooth="yes"/>
      <point x="156" y="233"/>
      <point x="167" y="250"/>
      <point x="210" y="250" type="curve" smooth="yes"/>
      <point x="270" y="250"/>
      <point x="317" y="215"/>
      <point x="317" y="156" type="curve" smooth="yes"/>
      <point x="317" y="106"/>
      <point x="270" y="74"/>
      <point x="181" y="74" type="curve"/>
      <point x="138" y="81"/>
      <point x="97" y="94"/>
      <point x="48" y="109" type="curve"/>
      <point x="17" y="52" type="line"/>
      <point x="78" y="12"/>
      <point x="144" y="-4"/>
      <point x="210" y="-4" type="curve" smooth="yes"/>
      <point x="347" y="-4"/>
      <point x="426" y="60"/>
    </contour>
    <contour>
      <point x="483" y="363" type="line"/>
      <point x="483" y="447" type="line"/>
      <point x="-29" y="447" type="line"/>
      <point x="-29" y="363" type="line"/>
    </contour>
    <contour>
      <point x="321" y="447" type="move" name="top"/>
    </contour>
    <contour>
      <point x="232" y="0" type="move" name="bottom"/>
    </contour>
  </outline>
</glyph>
<glyph name="grMA" format="1">
  <advance width="439"/>
  <unicode hex="0A2E"/>
  <outline>
    <contour>
      <point x="183" y="246" type="curve" smooth="yes"/>
      <point x="183" y="355"/>
      <point x="136" y="447"/>
      <point x="30" y="447" type="curve" smooth="yes"/>
      <point x="-15" y="447" type="line"/>
      <point x="-15" y="363" type="line"/>
      <point x="64" y="363" type="line"/>
      <point x="79" y="322"/>
      <point x="82" y="273"/>
      <point x="85" y="222" type="curve"/>
      <point x="41" y="170"/>
      <point x="27" y="133"/>
      <point x="26" y="114" type="curve" smooth="yes"/>
      <point x="25" y="86"/>
      <point x="74" y="53"/>
      <point x="118" y="48" type="curve"/>
      <point x="161" y="97"/>
      <point x="183" y="165"/>
    </contour>
    <contour>
      <point x="297" y="154" type="curve"/>
      <point x="322" y="262" type="line"/>
      <point x="268" y="277"/>
      <point x="213" y="284"/>
      <point x="159" y="241" type="curve"/>
      <point x="170" y="176" type="line"/>
      <point x="214" y="202"/>
      <point x="271" y="185"/>
    </contour>
    <contour>
      <point x="398" y="0" type="line"/>
      <point x="398" y="363" type="line"/>
      <point x="453" y="363" type="line"/>
      <point x="453" y="447" type="line"/>
      <point x="289" y="447" type="line"/>
      <point x="289" y="0" type="line"/>
    </contour>
  </outline>
</glyph>
<glyph name="grYA" format="1">
  <advance width="548"/>
  <unicode hex="0A2F"/>
  <outline>
    <contour>
      <point x="505" y="0" type="line"/>
      <point x="505" y="380" type="line"/>
      <point x="396" y="380" type="line"/>
      <point x="396" y="285" type="line"/>
      <point x="239" y="285" type="line"/>
      <point x="239" y="210" type="line" smooth="yes"/>
      <point x="239" y="165"/>
      <point x="221" y="148"/>
      <point x="179" y="148" type="curve" smooth="yes"/>
      <point x="154" y="148"/>
      <point x="135" y="153"/>
      <point x="121" y="161" type="curve"/>
      <point x="163" y="212"/>
      <point x="186" y="249"/>
      <point x="186" y="301" type="curve" smooth="yes"/>
      <point x="186" y="336"/>
      <point x="166" y="372"/>
      <point x="135" y="399" type="curve"/>
      <point x="74" y="379" type="line"/>
      <point x="85" y="355"/>
      <point x="86" y="345"/>
      <point x="86" y="335" type="curve" smooth="yes"/>
      <point x="86" y="305"/>
      <point x="72" y="286"/>
      <point x="34" y="225" type="curve" smooth="yes"/>
      <point x="13" y="191"/>
      <point x="12" y="186"/>
      <point x="12" y="175" type="curve" smooth="yes"/>
      <point x="12" y="130"/>
      <point x="81" y="71"/>
      <point x="201" y="71" type="curve" smooth="yes"/>
      <point x="297" y="71"/>
      <point x="345" y="116"/>
      <point x="345" y="191" type="curve" smooth="yes"/>
      <point x="345" y="202" type="line"/>
      <point x="396" y="202" type="line"/>
      <point x="396" y="0" type="line"/>
    </contour>
    <contour>
      <point x="577" y="363" type="line"/>
      <point x="577" y="447" type="line"/>
      <point x="-29" y="447" type="line"/>
      <point x="-29" y="363" type="line"/>
    </contour>
  </outline>
</glyph>
<glyph name="grRA" format="1">
  <advance width="389"/>
  <unicode hex="0A30"/>
  <outline>
    <contour>
      <point x="346" y="146" type="curve" smooth="yes"/>
      <point x="346" y="363" type="line"/>
      <point x="418" y="363" type="line"/>
      <point x="418" y="447" type="line"/>
      <point x="-29" y="447" type="line"/>
      <point x="-29" y="363" type="line"/>
      <point x="237" y="363" type="line"/>
      <point x="237" y="291" type="line"/>
      <point x="150" y="291" type="line" smooth="yes"/>
      <point x="77" y="291"/>
      <point x="25" y="250"/>
      <point x="25" y="178" type="curve" smooth="yes"/>
      <point x="25" y="80"/>
      <point x="141" y="-4"/>
      <point x="229" y="-4" type="curve" smooth="yes"/>
      <point x="297" y="-4"/>
      <point x="346" y="38"/>
    </contour>
    <contour>
      <point x="137" y="91" type="curve"/>
      <point x="135" y="113"/>
      <point x="133" y="129"/>
      <point x="133" y="150" type="curve" smooth="yes"/>
      <point x="133" y="185"/>
      <point x="148" y="208"/>
      <point x="191" y="208" type="curve" smooth="yes"/>
      <point x="237" y="208" type="line"/>
      <point x="237" y="146" type="line" smooth="yes"/>
      <point x="237" y="101"/>
      <point x="228" y="76"/>
      <point x="191" y="76" type="curve" smooth="yes"/>
      <point x="172" y="76"/>
      <point x="151" y="81"/>
    </contour>
    <contour>
      <point x="291" y="447" type="move" name="top"/>
    </contour>
    <contour>
      <point x="200" y="0" type="move" name="bottom"/>
    </contour>
  </outline>
</glyph>
<glyph name="grLA" format="1">
  <advance width="473"/>
  <unicode hex="0A32"/>
  <outline>
    <contour>
      <point x="415" y="395" type="curve"/>
      <point x="311" y="395" type="line"/>
      <point x="312" y="307"/>
      <point x="256" y="244"/>
      <point x="219" y="236" type="curve"/>
      <point x="184" y="257"/>
      <point x="152" y="307"/>
      <point x="149" y="395" type="curve"/>
      <point x="51" y="395" type="line"/>
      <point x="66" y="276"/>
      <point x="146" y="170"/>
      <point x="238" y="170" type="curve" smooth="yes"/>
      <point x="326" y="170"/>
      <point x="402" y="262"/>
    </contour>
    <contour>
      <point x="186" y="30" type="curve"/>
      <point x="133" y="80"/>
      <point x="121" y="102"/>
      <point x="121" y="141" type="curve" smooth="yes"/>
      <point x="121" y="185"/>
      <point x="151" y="214"/>
      <point x="206" y="219" type="curve"/>
      <point x="139" y="278" type="line"/>
      <point x="71" y="257"/>
      <point x="27" y="207"/>
      <point x="27" y="141" type="curve" smooth="yes"/>
      <point x="27" y="86"/>
      <point x="48" y="48"/>
      <point x="125" y="-8" type="curve"/>
      <point x="146" y="-3"/>
      <point x="167" y="9"/>
    </contour>
    <contour>
      <point x="447" y="142" type="curve" smooth="yes"/>
      <point x="447" y="204"/>
      <point x="400" y="265"/>
      <point x="331" y="282" type="curve"/>
      <point x="280" y="227" type="line"/>
      <point x="315" y="213"/>
      <point x="336" y="185"/>
      <point x="336" y="144" type="curve" smooth="yes"/>
      <point x="336" y="104"/>
      <point x="304" y="69"/>
      <point x="268" y="37" type="curve"/>
      <point x="284" y="15"/>
      <point x="316" y="0"/>
      <point x="350" y="-8" type="curve"/>
      <point x="407" y="19"/>
      <point x="447" y="73"/>
    </contour>
    <contour>
      <point x="502" y="363" type="line"/>
      <point x="502" y="447" type="line"/>
      <point x="-29" y="447" type="line"/>
      <point x="-29" y="363" type="line"/>
    </contour>
    <contour>
      <point x="363" y="447" type="move" name="top"/>
    </contour>
    <contour>
      <point x="237" y="0" type="move" name="bottom"/>
    </contour>
  </outline>
</glyph>
<glyph name="grLxA" format="1">
  <advance width="555"/>
  <unicode hex="0A33"/>
  <outline>
    <contour>
      <point x="415" y="395" type="curve"/>
      <point x="311" y="395" type="line"/>
      <point x="312" y="307"/>
      <point x="256" y="244"/>
      <point x="219" y="236" type="curve"/>
      <point x="184" y="257"/>
      <point x="152" y="307"/>
      <point x="149" y="395" type="curve"/>
      <point x="51" y="395" type="line"/>
      <point x="66" y="276"/>
      <point x="146" y="170"/>
      <point x="238" y="170" type="curve" smooth="yes"/>
      <point x="326" y="170"/>
      <point x="402" y="262"/>
    </contour>
    <contour>
      <point x="186" y="30" type="curve"/>
      <point x="133" y="80"/>
      <point x="121" y="102"/>
      <point x="121" y="141" type="curve" smooth="yes"/>
      <point x="121" y="185"/>
      <point x="151" y="214"/>
      <point x="206" y="219" type="curve"/>
      <point x="139" y="278" type="line"/>
      <point x="71" y="257"/>
      <point x="27" y="207"/>
      <point x="27" y="141" type="curve" smooth="yes"/>
      <point x="27" y="86"/>
      <point x="48" y="48"/>
      <point x="125" y="-8" type="curve"/>
      <point x="146" y="-3"/>
      <point x="167" y="9"/>
    </contour>
    <contour>
      <point x="447" y="142" type="curve" smooth="yes"/>
      <point x="447" y="204"/>
      <point x="400" y="265"/>
      <point x="331" y="282" type="curve"/>
      <point x="280" y="227" type="line"/>
      <point x="315" y="213"/>
      <point x="336" y="185"/>
      <point x="336" y="144" type="curve" smooth="yes"/>
      <point x="336" y="104"/>
      <point x="304" y="69"/>
      <point x="268" y="37" type="curve"/>
      <point x="284" y="15"/>
      <point x="316" y="0"/>
      <point x="350" y="-8" type="curve"/>
      <point x="407" y="19"/>
      <point x="447" y="73"/>
    </contour>
    <contour>
      <point x="568" y="49" type="curve" smooth="yes"/>
      <point x="568" y="81"/>
      <point x="546" y="104"/>
      <point x="513" y="104" type="curve" smooth="yes"/>
      <point x="481" y="104"/>
      <point x="457" y="81"/>
      <point x="457" y="49" type="curve" smooth="yes"/>
      <point x="457" y="16"/>
      <point x="481" y="-7"/>
      <point x="513" y="-7" type="curve" smooth="yes"/>
      <point x="546" y="-7"/>
      <point x="568" y="16"/>
    </contour>
    <contour>
      <point x="584" y="363" type="line"/>
      <point x="584" y="447" type="line"/>
      <point x="-29" y="447" type="line"/>
      <point x="-29" y="363" type="line"/>
    </contour>
    <contour>
      <point x="363" y="447" type="move" name="top"/>
    </contour>
    <contour>
      <point x="237" y="0" type="move" name="bottom"/>
    </contour>
  </outline>
</glyph>
<glyph name="grVA" format="1">
  <advance width="415"/>
  <unicode hex="0A35"/>
  <outline>
    <contour>
      <point x="393" y="18" type="curve"/>
      <point x="370" y="88" type="line"/>
      <point x="340" y="81"/>
      <point x="318" y="78"/>
      <point x="294" y="78" type="curve" smooth="yes"/>
      <point x="250" y="78"/>
      <point x="223" y="88"/>
      <point x="223" y="115" type="curve" smooth="yes"/>
      <point x="223" y="117"/>
      <point x="223" y="120"/>
      <point x="224" y="122" type="curve"/>
      <point x="269" y="125"/>
      <point x="315" y="134"/>
      <point x="360" y="149" type="curve"/>
      <point x="375" y="182"/>
      <point x="358" y="228"/>
      <point x="320" y="236" type="curve"/>
      <point x="186" y="183" type="line"/>
      <point x="146" y="181"/>
      <point x="133" y="205"/>
      <point x="133" y="223" type="curve" smooth="yes"/>
      <point x="133" y="242"/>
      <point x="146" y="263"/>
      <point x="181" y="263" type="curve" smooth="yes"/>
      <point x="364" y="263" type="line"/>
      <point x="364" y="363" type="line"/>
      <point x="444" y="363" type="line"/>
      <point x="444" y="447" type="line"/>
      <point x="-29" y="447" type="line"/>
      <point x="-29" y="363" type="line"/>
      <point x="255" y="363" type="line"/>
      <point x="255" y="320" type="line"/>
      <point x="166" y="320" type="line" smooth="yes"/>
      <point x="68" y="320"/>
      <point x="25" y="278"/>
      <point x="25" y="223" type="curve" smooth="yes"/>
      <point x="25" y="169"/>
      <point x="68" y="131"/>
      <point x="153" y="124" type="curve"/>
      <point x="151" y="114"/>
      <point x="150" y="104"/>
      <point x="150" y="96" type="curve" smooth="yes"/>
      <point x="150" y="35"/>
      <point x="198" y="-4"/>
      <point x="286" y="-4" type="curve" smooth="yes"/>
      <point x="328" y="-4"/>
      <point x="366" y="6"/>
    </contour>
    <contour>
      <point x="310" y="447" type="move" name="top"/>
    </contour>
    <contour>
      <point x="232" y="0" type="move" name="bottom"/>
    </contour>
  </outline>
</glyph>
<glyph name="grSxA" format="1">
  <advance width="479"/>
  <unicode hex="0A36"/>
  <outline>
    <contour>
      <point x="186" y="246" type="curve" smooth="yes"/>
      <point x="186" y="355"/>
      <point x="138" y="447"/>
      <point x="33" y="447" type="curve" smooth="yes"/>
      <point x="-29" y="447" type="line"/>
      <point x="-29" y="363" type="line"/>
      <point x="67" y="363" type="line"/>
      <point x="82" y="322"/>
      <point x="85" y="273"/>
      <point x="88" y="222" type="curve"/>
      <point x="44" y="170"/>
      <point x="30" y="133"/>
      <point x="29" y="114" type="curve" smooth="yes"/>
      <point x="28" y="86"/>
      <point x="77" y="53"/>
      <point x="121" y="48" type="curve"/>
      <point x="164" y="97"/>
      <point x="186" y="165"/>
    </contour>
    <contour>
      <point x="288" y="49" type="curve" smooth="yes"/>
      <point x="288" y="81"/>
      <point x="265" y="104"/>
      <point x="233" y="104" type="curve" smooth="yes"/>
      <point x="200" y="104"/>
      <point x="177" y="81"/>
      <point x="177" y="49" type="curve" smooth="yes"/>
      <point x="177" y="16"/>
      <point x="200" y="-7"/>
      <point x="233" y="-7" type="curve" smooth="yes"/>
      <point x="265" y="-7"/>
      <point x="288" y="16"/>
    </contour>
    <contour>
      <point x="358" y="262" type="line"/>
      <point x="331" y="269"/>
      <point x="305" y="273"/>
      <point x="278" y="273" type="curve" smooth="yes"/>
      <point x="238" y="273"/>
      <point x="199" y="264"/>
      <point x="159" y="241" type="curve"/>
      <point x="173" y="176" type="line"/>
      <point x="196" y="185"/>
      <point x="218" y="189"/>
      <point x="239" y="189" type="curve" smooth="yes"/>
      <point x="272" y="189"/>
      <point x="302" y="180"/>
      <point x="331" y="164" type="curve"/>
    </contour>
    <contour>
      <point x="436" y="0" type="line"/>
      <point x="436" y="363" type="line"/>
      <point x="508" y="363" type="line"/>
      <point x="508" y="447" type="line"/>
      <point x="327" y="447" type="line"/>
      <point x="327" y="0" type="line"/>
    </contour>
  </outline>
</glyph>
<glyph name="grSA" format="1">
  <advance width="444"/>
  <unicode hex="0A38"/>
  <outline>
    <contour>
      <point x="186" y="246" type="curve" smooth="yes"/>
      <point x="186" y="297"/>
      <point x="176" y="344"/>
      <point x="154" y="379" type="curve"/>
      <point x="67" y="364" type="line"/>
      <point x="82" y="322"/>
      <point x="85" y="273"/>
      <point x="88" y="222" type="curve"/>
      <point x="44" y="170"/>
      <point x="30" y="133"/>
      <point x="29" y="114" type="curve" smooth="yes"/>
      <point x="28" y="86"/>
      <point x="77" y="53"/>
      <point x="121" y="48" type="curve"/>
      <point x="164" y="97"/>
      <point x="186" y="165"/>
    </contour>
    <contour>
      <point x="220" y="189" type="curve" smooth="yes"/>
      <point x="252" y="189"/>
      <point x="283" y="174"/>
      <point x="300" y="154" type="curve"/>
      <point x="325" y="262" type="line"/>
      <point x="301" y="269"/>
      <point x="278" y="273"/>
      <point x="254" y="273" type="curve" smooth="yes"/>
      <point x="223" y="273"/>
      <point x="192" y="265"/>
      <point x="162" y="241" type="curve"/>
      <point x="173" y="176" type="line"/>
      <point x="188" y="185"/>
      <point x="204" y="189"/>
    </contour>
    <contour>
      <point x="401" y="0" type="line"/>
      <point x="401" y="382" type="line"/>
      <point x="292" y="382" type="line"/>
      <point x="292" y="0" type="line"/>
    </contour>
    <contour>
      <point x="473" y="363" type="line"/>
      <point x="473" y="447" type="line"/>
      <point x="-29" y="447" type="line"/>
      <point x="-29" y="363" type="line"/>
    </contour>
  </outline>
</glyph>
<glyph name="grmAA" format="1">
  <advance width="196"/>
  <unicode hex="0A3E"/>
  <outline>
    <contour>
      <point x="152" y="160" type="line"/>
      <point x="152" y="363" type="line"/>
      <point x="225" y="363" type="line"/>
      <point x="225" y="447" type="line"/>
      <point x="-29" y="447" type="line"/>
      <point x="-29" y="363" type="line"/>
      <point x="44" y="363" type="line"/>
      <point x="44" y="160" type="line"/>
    </contour>
    <contour>
      <point x="98" y="447" type="move" name="top"/>
    </contour>
  </outline>
</glyph>
<glyph name="grmII" format="1">
  <advance width="196"/>
  <unicode hex="0A40"/>
  <outline>
    <contour>
      <point x="152" y="0" type="line"/>
      <point x="152" y="363" type="line"/>
      <point x="225" y="363" type="line"/>
      <point x="225" y="447" type="line"/>
      <point x="-29" y="447" type="line"/>
      <point x="-29" y="363" type="line"/>
      <point x="44" y="363" type="line"/>
      <point x="44" y="0" type="line"/>
    </contour>
    <contour>
      <point x="152" y="435" type="line"/>
      <point x="152" y="457" type="line" smooth="yes"/>
      <point x="152" y="577"/>
      <point x="59" y="657"/>
      <point x="-44" y="657" type="curve" smooth="yes"/>
      <point x="-134" y="657"/>
      <point x="-183" y="606"/>
      <point x="-183" y="543" type="curve" smooth="yes"/>
      <point x="-183" y="503"/>
      <point x="-164" y="459"/>
      <point x="-123" y="419" type="curve"/>
      <point x="-52" y="439" type="line"/>
      <point x="-66" y="458"/>
      <point x="-73" y="483"/>
      <point x="-73" y="506" type="curve" smooth="yes"/>
      <point x="-73" y="550"/>
      <point x="-44" y="570"/>
      <point x="-10" y="570" type="curve" smooth="yes"/>
      <point x="8" y="570"/>
      <point x="28" y="564"/>
      <point x="44" y="553" type="curve"/>
      <point x="44" y="435" type="line"/>
    </contour>
  </outline>
</glyph>
<glyph name="grmU" format="1">
  <unicode hex="0A41"/>
  <outline>
    <contour>
      <point x="-21" y="-131" type="curve"/>
      <point x="-51" y="-56" type="line"/>
      <point x="-98" y="-72"/>
      <point x="-133" y="-80"/>
      <point x="-175" y="-80" type="curve" smooth="yes"/>
      <point x="-215" y="-80"/>
      <point x="-262" y="-75"/>
      <point x="-344" y="-46" type="curve"/>
      <point x="-358" y="-107" type="line"/>
      <point x="-274" y="-154"/>
      <point x="-199" y="-162"/>
      <point x="-162" y="-162" type="curve" smooth="yes"/>
      <point x="-113" y="-162"/>
      <point x="-63" y="-153"/>
    </contour>
    <contour>
      <point x="-190" y="0" type="move" name="_bottom"/>
    </contour>
  </outline>
</glyph>
<glyph name="grmUU" format="1">
  <unicode hex="0A42"/>
  <outline>
    <contour>
      <point x="-21" y="-131" type="curve"/>
      <point x="-51" y="-56" type="line"/>
      <point x="-98" y="-72"/>
      <point x="-133" y="-80"/>
      <point x="-175" y="-80" type="curve" smooth="yes"/>
      <point x="-215" y="-80"/>
      <point x="-262" y="-75"/>
      <point x="-344" y="-46" type="curve"/>
      <point x="-358" y="-107" type="line"/>
      <point x="-274" y="-154"/>
      <point x="-199" y="-162"/>
      <point x="-162" y="-162" type="curve" smooth="yes"/>
      <point x="-113" y="-162"/>
      <point x="-63" y="-153"/>
    </contour>
    <contour>
      <point x="-9" y="-255" type="curve"/>
      <point x="-40" y="-180" type="line"/>
      <point x="-89" y="-196"/>
      <point x="-125" y="-204"/>
      <point x="-170" y="-204" type="curve" smooth="yes"/>
      <point x="-212" y="-204"/>
      <point x="-261" y="-199"/>
      <point x="-347" y="-170" type="curve"/>
      <point x="-362" y="-231" type="line"/>
      <point x="-274" y="-278"/>
      <point x="-195" y="-286"/>
      <point x="-157" y="-286" type="curve" smooth="yes"/>
      <point x="-105" y="-286"/>
      <point x="-53" y="-277"/>
    </contour>
    <contour>
      <point x="-182" y="0" type="move" name="_bottom"/>
    </contour>
  </outline>
</glyph>
<glyph name="grmEE" format="1">
  <unicode hex="0A47"/>
  <outline>
    <contour>
      <point x="-99" y="552" type="line" smooth="yes"/>
      <point x="-133" y="628"/>
      <point x="-162" y="655"/>
      <point x="-211" y="655" type="curve" smooth="yes"/>
      <point x="-243" y="655"/>
      <point x="-286" y="642"/>
      <point x="-339" y="619" type="curve"/>
      <point x="-323" y="537" type="line"/>
      <point x="-163" y="550" type="line"/>
      <point x="-93" y="437" type="line"/>
      <point x="-49" y="437" type="line"/>
    </contour>
    <contour>
      <point x="-71" y="447" type="move" name="_top"/>
    </contour>
  </outline>
</glyph>
<glyph name="grmAI" format="1">
  <unicode hex="0A48"/>
  <outline>
    <contour>
      <point x="-53" y="438" type="line"/>
      <point x="-132" y="630" type="line" smooth="yes"/>
      <point x="-157" y="690"/>
      <point x="-187" y="713"/>
      <point x="-231" y="713" type="curve" smooth="yes"/>
      <point x="-263" y="713"/>
      <point x="-302" y="703"/>
      <point x="-344" y="683" type="curve"/>
      <point x="-334" y="622" type="line"/>
      <point x="-199" y="622" type="line"/>
      <point x="-104" y="463" type="line"/>
      <point x="-111" y="460" type="line"/>
      <point x="-173" y="543" type="line" smooth="yes"/>
      <point x="-197" y="575"/>
      <point x="-221" y="592"/>
      <point x="-255" y="592" type="curve" smooth="yes"/>
      <point x="-286" y="592"/>
      <point x="-319" y="581"/>
      <point x="-361" y="560" type="curve"/>
      <point x="-340" y="492" type="line"/>
      <point x="-215" y="508" type="line"/>
      <point x="-136" y="438" type="line"/>
    </contour>
    <contour>
      <point x="-94" y="447" type="move" name="_top"/>
    </contour>
  </outline>
</glyph>
<glyph name="grmOO" format="1">
  <unicode hex="0A4B"/>
  <outline>
    <contour>
      <point x="-51" y="437" type="line"/>
      <point x="-59" y="465" type="line" smooth="yes"/>
      <point x="-94" y="573"/>
      <point x="-117" y="614"/>
      <point x="-192" y="614" type="curve" smooth="yes"/>
      <point x="-234" y="614" type="line" smooth="yes"/>
      <point x="-270" y="614"/>
      <point x="-276" y="621"/>
      <point x="-287" y="655" type="curve"/>
      <point x="-315" y="655" type="line"/>
      <point x="-326" y="631"/>
      <point x="-331" y="609"/>
      <point x="-331" y="589" type="curve" smooth="yes"/>
      <point x="-331" y="540"/>
      <point x="-298" y="505"/>
      <point x="-215" y="505" type="curve" smooth="yes"/>
      <point x="-134" y="505" type="line"/>
      <point x="-94" y="437" type="line"/>
    </contour>
    <contour>
      <point x="-73" y="447" type="move" name="_top"/>
    </contour>
  </outline>
</glyph>
<glyph name="grmAU" format="1">
  <unicode hex="0A4C"/>
  <outline>
    <contour>
      <point x="-152" y="547" type="line"/>
      <point x="-96" y="640" type="line"/>
      <point x="-207" y="640" type="line" smooth="yes"/>
      <point x="-242" y="640"/>
      <point x="-249" y="647"/>
      <point x="-260" y="681" type="curve"/>
      <point x="-288" y="681" type="line"/>
      <point x="-299" y="657"/>
      <point x="-304" y="636"/>
      <point x="-304" y="617" type="curve" smooth="yes"/>
      <point x="-304" y="573"/>
      <point x="-273" y="547"/>
      <point x="-210" y="547" type="curve" smooth="yes"/>
    </contour>
    <component base="grTippi" xOffset="-7"/>
    <contour>
      <point x="-95" y="447" type="move" name="_top"/>
    </contour>
  </outline>
</glyph>
<glyph name="grUdaat" format="1">
  <unicode hex="0A51"/>
  <outline>
    <contour>
      <point x="62" y="-249" type="curve"/>
      <point x="21" y="-169" type="line"/>
      <point x="-66" y="-182" type="line"/>
      <point x="-179" y="-43" type="line"/>
      <point x="-211" y="-67" type="line"/>
      <point x="-146" y="-192" type="line" smooth="yes"/>
      <point x="-113" y="-257"/>
      <point x="-69" y="-286"/>
      <point x="-21" y="-286" type="curve" smooth="yes"/>
      <point x="7" y="-286"/>
      <point x="36" y="-274"/>
    </contour>
    <contour>
      <point x="-94" y="0" type="move" name="_bottom"/>
    </contour>
  </outline>
</glyph>
<glyph name="grKHxA" format="1">
  <advance width="500"/>
  <unicode hex="0A59"/>
  <outline>
    <contour>
      <point x="456" y="0" type="line"/>
      <point x="456" y="363" type="line"/>
      <point x="529" y="363" type="line"/>
      <point x="529" y="447" type="line"/>
      <point x="347" y="447" type="line"/>
      <point x="347" y="196" type="line"/>
      <point x="292" y="161"/>
      <point x="247" y="148"/>
      <point x="211" y="148" type="curve" smooth="yes"/>
      <point x="196" y="148"/>
      <point x="185" y="152"/>
      <point x="178" y="161" type="curve"/>
      <point x="220" y="212"/>
      <point x="243" y="249"/>
      <point x="243" y="301" type="curve" smooth="yes"/>
      <point x="243" y="370"/>
      <point x="162" y="447"/>
      <point x="71" y="447" type="curve" smooth="yes"/>
      <point x="-29" y="447" type="line"/>
      <point x="-29" y="363" type="line" smooth="yes"/>
      <point x="99" y="363" type="line" smooth="yes"/>
      <point x="112" y="363"/>
      <point x="125" y="363"/>
      <point x="138" y="363" type="curve"/>
      <point x="142" y="355"/>
      <point x="144" y="345"/>
      <point x="144" y="335" type="curve" smooth="yes"/>
      <point x="144" y="305"/>
      <point x="129" y="286"/>
      <point x="91" y="225" type="curve" smooth="yes"/>
      <point x="70" y="191"/>
      <point x="69" y="186"/>
      <point x="69" y="175" type="curve" smooth="yes"/>
      <point x="69" y="130"/>
      <point x="138" y="71"/>
      <point x="229" y="71" type="curve" smooth="yes"/>
      <point x="278" y="71"/>
      <point x="310" y="80"/>
      <point x="349" y="95" type="curve"/>
      <point x="352" y="93" type="line"/>
      <point x="347" y="27" type="line"/>
      <point x="347" y="0" type="line"/>
    </contour>
    <contour>
      <point x="102" y="49" type="curve" smooth="yes"/>
      <point x="102" y="81"/>
      <point x="79" y="104"/>
      <point x="46" y="104" type="curve" smooth="yes"/>
      <point x="14" y="104"/>
      <point x="-9" y="81"/>
      <point x="-9" y="49" type="curve" smooth="yes"/>
      <point x="-9" y="16"/>
      <point x="14" y="-7"/>
      <point x="46" y="-7" type="curve" smooth="yes"/>
      <point x="79" y="-7"/>
      <point x="102" y="16"/>
    </contour>
    <contour>
      <point x="374" y="235" type="line"/>
      <point x="374" y="318" type="line"/>
      <point x="199" y="318" type="line"/>
      <point x="199" y="235" type="line"/>
    </contour>
  </outline>
</glyph>
<glyph name="grGxA" format="1">
  <advance width="658"/>
  <unicode hex="0A5A"/>
  <outline>
    <contour>
      <point x="419" y="146" type="curve" smooth="yes"/>
      <point x="419" y="363" type="line"/>
      <point x="506" y="363" type="line"/>
      <point x="506" y="0" type="line"/>
      <point x="615" y="0" type="line"/>
      <point x="615" y="363" type="line"/>
      <point x="687" y="363" type="line"/>
      <point x="687" y="447" type="line"/>
      <point x="-29" y="447" type="line"/>
      <point x="-29" y="363" type="line"/>
      <point x="310" y="363" type="line"/>
      <point x="310" y="291" type="line"/>
      <point x="223" y="291" type="line" smooth="yes"/>
      <point x="150" y="291"/>
      <point x="98" y="250"/>
      <point x="98" y="178" type="curve" smooth="yes"/>
      <point x="98" y="80"/>
      <point x="215" y="-4"/>
      <point x="302" y="-4" type="curve" smooth="yes"/>
      <point x="370" y="-4"/>
      <point x="419" y="38"/>
    </contour>
    <contour>
      <point x="102" y="49" type="curve" smooth="yes"/>
      <point x="102" y="81"/>
      <point x="79" y="104"/>
      <point x="46" y="104" type="curve" smooth="yes"/>
      <point x="14" y="104"/>
      <point x="-9" y="81"/>
      <point x="-9" y="49" type="curve" smooth="yes"/>
      <point x="-9" y="16"/>
      <point x="14" y="-7"/>
      <point x="46" y="-7" type="curve" smooth="yes"/>
      <point x="79" y="-7"/>
      <point x="102" y="16"/>
    </contour>
    <contour>
      <point x="210" y="91" type="curve"/>
      <point x="208" y="113"/>
      <point x="207" y="129"/>
      <point x="207" y="150" type="curve" smooth="yes"/>
      <point x="207" y="185"/>
      <point x="221" y="208"/>
      <point x="264" y="208" type="curve" smooth="yes"/>
      <point x="310" y="208" type="line"/>
      <point x="310" y="146" type="line" smooth="yes"/>
      <point x="310" y="101"/>
      <point x="301" y="76"/>
      <point x="265" y="76" type="curve" smooth="yes"/>
      <point x="245" y="76"/>
      <point x="224" y="81"/>
    </contour>
  </outline>
</glyph>
<glyph name="grJxA" format="1">
  <advance width="506"/>
  <unicode hex="0A5B"/>
  <outline>
    <contour>
      <point x="178" y="0" type="line"/>
      <point x="178" y="189" type="line"/>
      <point x="354" y="189" type="line"/>
      <point x="354" y="0" type="line"/>
      <point x="463" y="0" type="line"/>
      <point x="463" y="363" type="line"/>
      <point x="535" y="363" type="line"/>
      <point x="535" y="447" type="line"/>
      <point x="-29" y="447" type="line"/>
      <point x="-29" y="363" type="line"/>
      <point x="354" y="363" type="line"/>
      <point x="354" y="272" type="line"/>
      <point x="154" y="272" type="line"/>
      <point x="80" y="319" type="line"/>
      <point x="49" y="319"/>
      <point x="23" y="295"/>
      <point x="12" y="259" type="curve"/>
      <point x="20" y="223"/>
      <point x="43" y="198"/>
      <point x="69" y="183" type="curve"/>
      <point x="69" y="0" type="line"/>
    </contour>
    <contour>
      <point x="321" y="49" type="curve" smooth="yes"/>
      <point x="321" y="81"/>
      <point x="299" y="104"/>
      <point x="266" y="104" type="curve" smooth="yes"/>
      <point x="233" y="104"/>
      <point x="210" y="81"/>
      <point x="210" y="49" type="curve" smooth="yes"/>
      <point x="210" y="16"/>
      <point x="233" y="-7"/>
      <point x="266" y="-7" type="curve" smooth="yes"/>
      <point x="299" y="-7"/>
      <point x="321" y="16"/>
    </contour>
  </outline>
</glyph>
<glyph name="grRRA" format="1">
  <advance width="443"/>
  <unicode hex="0A5C"/>
  <outline>
    <contour>
      <point x="202" y="22" type="curve"/>
      <point x="172" y="52"/>
      <point x="139" y="83"/>
      <point x="120" y="113" type="curve"/>
      <point x="115" y="91" type="line"/>
      <point x="153" y="72"/>
      <point x="191" y="65"/>
      <point x="231" y="65" type="curve" smooth="yes"/>
      <point x="346" y="65"/>
      <point x="425" y="105"/>
      <point x="425" y="177" type="curve" smooth="yes"/>
      <point x="425" y="249"/>
      <point x="342" y="317"/>
      <point x="210" y="317" type="curve" smooth="yes"/>
      <point x="123" y="317"/>
      <point x="89" y="294"/>
      <point x="89" y="259" type="curve" smooth="yes"/>
      <point x="89" y="249"/>
      <point x="91" y="241"/>
      <point x="94" y="232" type="curve"/>
      <point x="125" y="218"/>
      <point x="159" y="212"/>
      <point x="198" y="212" type="curve" smooth="yes"/>
      <point x="239" y="212"/>
      <point x="275" y="223"/>
      <point x="302" y="234" type="curve"/>
      <point x="310" y="226"/>
      <point x="317" y="207"/>
      <point x="317" y="195" type="curve" smooth="yes"/>
      <point x="317" y="164"/>
      <point x="283" y="145"/>
      <point x="202" y="145" type="curve"/>
      <point x="149" y="154"/>
      <point x="103" y="167"/>
      <point x="49" y="189" type="curve"/>
      <point x="15" y="121" type="line"/>
      <point x="50" y="63"/>
      <point x="87" y="19"/>
      <point x="121" y="-7" type="curve"/>
      <point x="149" y="-6"/>
      <point x="186" y="7"/>
    </contour>
    <contour>
      <point x="413" y="26" type="curve"/>
      <point x="381" y="55"/>
      <point x="353" y="86"/>
      <point x="333" y="117" type="curve"/>
      <point x="247" y="100" type="line"/>
      <point x="272" y="53"/>
      <point x="301" y="21"/>
      <point x="330" y="-4" type="curve"/>
      <point x="363" y="-2"/>
      <point x="392" y="8"/>
    </contour>
    <contour>
      <point x="472" y="363" type="line"/>
      <point x="472" y="447" type="line"/>
      <point x="-29" y="447" type="line"/>
      <point x="-29" y="363" type="line"/>
    </contour>
    <contour>
      <point x="382" y="380" type="curve"/>
      <point x="273" y="380" type="line"/>
      <point x="270" y="355"/>
      <point x="260" y="317"/>
      <point x="254" y="298" type="curve"/>
      <point x="336" y="265" type="line"/>
      <point x="363" y="292"/>
      <point x="380" y="346"/>
    </contour>
    <contour>
      <point x="328" y="447" type="move" name="top"/>
    </contour>
    <contour>
      <point x="244" y="0" type="move" name="bottom"/>
    </contour>
  </outline>
</glyph>
<glyph name="grPHxA" format="1">
  <advance width="497"/>
  <unicode hex="0A5E"/>
  <outline>
    <contour>
      <point x="479" y="92" type="curve" smooth="yes"/>
      <point x="479" y="152"/>
      <point x="423" y="202"/>
      <point x="333" y="202" type="curve" smooth="yes"/>
      <point x="279" y="202"/>
      <point x="239" y="186"/>
      <point x="189" y="144" type="curve"/>
      <point x="225" y="81" type="line"/>
      <point x="259" y="112"/>
      <point x="291" y="125"/>
      <point x="326" y="125" type="curve" smooth="yes"/>
      <point x="341" y="125"/>
      <point x="356" y="123"/>
      <point x="366" y="120" type="curve"/>
      <point x="368" y="115"/>
      <point x="370" y="108"/>
      <point x="370" y="99" type="curve" smooth="yes"/>
      <point x="370" y="80"/>
      <point x="355" y="67"/>
      <point x="326" y="67" type="curve" smooth="yes"/>
      <point x="239" y="67"/>
      <point x="195" y="109"/>
      <point x="195" y="178" type="curve" smooth="yes"/>
      <point x="195" y="224"/>
      <point x="225" y="246"/>
      <point x="286" y="246" type="curve" smooth="yes"/>
      <point x="408" y="246" type="line"/>
      <point x="408" y="396" type="line"/>
      <point x="299" y="396" type="line"/>
      <point x="299" y="318" type="line"/>
      <point x="236" y="318" type="line" smooth="yes"/>
      <point x="131" y="318"/>
      <point x="83" y="265"/>
      <point x="83" y="199" type="curve" smooth="yes"/>
      <point x="83" y="99"/>
      <point x="196" y="-4"/>
      <point x="340" y="-4" type="curve" smooth="yes"/>
      <point x="434" y="-4"/>
      <point x="479" y="40"/>
    </contour>
    <contour>
      <point x="102" y="49" type="curve" smooth="yes"/>
      <point x="102" y="81"/>
      <point x="79" y="104"/>
      <point x="46" y="104" type="curve" smooth="yes"/>
      <point x="14" y="104"/>
      <point x="-9" y="81"/>
      <point x="-9" y="49" type="curve" smooth="yes"/>
      <point x="-9" y="16"/>
      <point x="14" y="-7"/>
      <point x="46" y="-7" type="curve" smooth="yes"/>
      <point x="79" y="-7"/>
      <point x="102" y="16"/>
    </contour>
    <contour>
      <point x="526" y="363" type="line"/>
      <point x="526" y="447" type="line"/>
      <point x="-29" y="447" type="line"/>
      <point x="-29" y="363" type="line"/>
    </contour>
    <contour>
      <point x="354" y="447" type="move" name="top"/>
    </contour>
    <contour>
      <point x="290" y="0" type="move" name="bottom"/>
    </contour>
  </outline>
</glyph>
<glyph name="grZero" format="1">
  <advance width="431"/>
  <unicode hex="0A66"/>
  <outline>
    <contour>
      <point x="402" y="227" type="curve" smooth="yes"/>
      <point x="402" y="347"/>
      <point x="329" y="421"/>
      <point x="203" y="421" type="curve" smooth="yes"/>
      <point x="77" y="421"/>
      <point x="29" y="356"/>
      <point x="29" y="240" type="curve" smooth="yes"/>
      <point x="29" y="123"/>
      <point x="88" y="49"/>
      <point x="228" y="49" type="curve" smooth="yes"/>
      <point x="355" y="49"/>
      <point x="402" y="112"/>
    </contour>
    <contour>
      <point x="159" y="138" type="curve"/>
      <point x="152" y="165"/>
      <point x="146" y="204"/>
      <point x="146" y="235" type="curve" smooth="yes"/>
      <point x="146" y="315"/>
      <point x="162" y="335"/>
      <point x="217" y="335" type="curve" smooth="yes"/>
      <point x="236" y="335"/>
      <point x="252" y="333"/>
      <point x="270" y="329" type="curve"/>
      <point x="279" y="307"/>
      <point x="286" y="272"/>
      <point x="286" y="232" type="curve" smooth="yes"/>
      <point x="286" y="151"/>
      <point x="267" y="133"/>
      <point x="215" y="133" type="curve" smooth="yes"/>
      <point x="196" y="133"/>
      <point x="177" y="134"/>
    </contour>
  </outline>
</glyph>
<glyph name="grThree" format="1">
  <advance width="403"/>
  <unicode hex="0A69"/>
  <outline>
    <contour>
      <point x="352" y="-42" type="curve"/>
      <point x="271" y="8" type="line"/>
      <point x="338" y="28"/>
      <point x="374" y="67"/>
      <point x="374" y="115" type="curve" smooth="yes"/>
      <point x="374" y="154"/>
      <point x="351" y="196"/>
      <point x="302" y="227" type="curve"/>
      <point x="235" y="183" type="line"/>
      <point x="250" y="170"/>
      <point x="257" y="149"/>
      <point x="257" y="129" type="curve" smooth="yes"/>
      <point x="257" y="101"/>
      <point x="239" y="71"/>
      <point x="191" y="59" type="curve"/>
      <point x="65" y="138" type="line"/>
      <point x="36" y="121"/>
      <point x="22" y="99"/>
      <point x="22" y="78" type="curve" smooth="yes"/>
      <point x="22" y="34"/>
      <point x="78" y="-8"/>
      <point x="173" y="-7" type="curve"/>
      <point x="304" y="-68" type="line"/>
      <point x="323" y="-69"/>
      <point x="341" y="-60"/>
    </contour>
    <contour>
      <point x="360" y="314" type="curve" smooth="yes"/>
      <point x="360" y="382"/>
      <point x="299" y="439"/>
      <point x="205" y="439" type="curve" smooth="yes"/>
      <point x="152" y="439"/>
      <point x="96" y="427"/>
      <point x="44" y="407" type="curve"/>
      <point x="60" y="338" type="line"/>
      <point x="170" y="345" type="line" smooth="yes"/>
      <point x="199" y="347"/>
      <point x="222" y="344"/>
      <point x="238" y="339" type="curve"/>
      <point x="242" y="328"/>
      <point x="244" y="315"/>
      <point x="244" y="305" type="curve" smooth="yes"/>
      <point x="244" y="289"/>
      <point x="239" y="273"/>
      <point x="228" y="260" type="curve"/>
      <point x="65" y="260" type="line"/>
      <point x="57" y="244"/>
      <point x="54" y="232"/>
      <point x="54" y="218" type="curve" smooth="yes"/>
      <point x="54" y="191"/>
      <point x="74" y="166"/>
      <point x="143" y="166" type="curve" smooth="yes"/>
      <point x="279" y="166"/>
      <point x="360" y="236"/>
    </contour>
  </outline>
</glyph>
<glyph name="grFour" format="1">
  <advance width="514"/>
  <unicode hex="0A6A"/>
  <outline>
    <contour>
      <point x="389" y="184" type="line"/>
      <point x="442" y="204"/>
      <point x="478" y="249"/>
      <point x="478" y="299" type="curve" smooth="yes"/>
      <point x="478" y="364"/>
      <point x="435" y="412"/>
      <point x="352" y="439" type="curve"/>
      <point x="318" y="360" type="line"/>
      <point x="355" y="343" type="line"/>
      <point x="363" y="331"/>
      <point x="367" y="317"/>
      <point x="367" y="303" type="curve" smooth="yes"/>
      <point x="367" y="270"/>
      <point x="331" y="249"/>
      <point x="257" y="249" type="curve" smooth="yes"/>
      <point x="215" y="249"/>
      <point x="185" y="252"/>
      <point x="159" y="260" type="curve"/>
      <point x="151" y="274"/>
      <point x="147" y="288"/>
      <point x="147" y="303" type="curve" smooth="yes"/>
      <point x="147" y="326"/>
      <point x="162" y="343"/>
      <point x="189" y="352" type="curve"/>
      <point x="154" y="438" type="line"/>
      <point x="79" y="418"/>
      <point x="36" y="371"/>
      <point x="36" y="306" type="curve" smooth="yes"/>
      <point x="36" y="255"/>
      <point x="67" y="208"/>
      <point x="128" y="183" type="curve"/>
    </contour>
    <contour>
      <point x="459" y="107" type="curve" smooth="yes"/>
      <point x="459" y="144"/>
      <point x="441" y="172"/>
      <point x="403" y="188" type="curve"/>
      <point x="403" y="212" type="line"/>
      <point x="112" y="212" type="line"/>
      <point x="112" y="189" type="line"/>
      <point x="74" y="172"/>
      <point x="56" y="144"/>
      <point x="56" y="107" type="curve" smooth="yes"/>
      <point x="56" y="48"/>
      <point x="117" y="-7"/>
      <point x="257" y="-7" type="curve" smooth="yes"/>
      <point x="398" y="-7"/>
      <point x="459" y="48"/>
    </contour>
    <contour>
      <point x="173" y="86" type="curve"/>
      <point x="171" y="96"/>
      <point x="170" y="107"/>
      <point x="170" y="117" type="curve" smooth="yes"/>
      <point x="170" y="152"/>
      <point x="191" y="171"/>
      <point x="257" y="171" type="curve" smooth="yes"/>
      <point x="286" y="171"/>
      <point x="318" y="167"/>
      <point x="341" y="162" type="curve"/>
      <point x="344" y="152"/>
      <point x="345" y="141"/>
      <point x="345" y="131" type="curve" smooth="yes"/>
      <point x="345" y="96"/>
      <point x="323" y="77"/>
      <point x="257" y="77" type="curve" smooth="yes"/>
      <point x="229" y="77"/>
      <point x="197" y="80"/>
    </contour>
  </outline>
</glyph>
<glyph name="grFive" format="1">
  <advance width="474"/>
  <unicode hex="0A6B"/>
  <outline>
    <contour>
      <point x="420" y="0" type="line"/>
      <point x="420" y="431" type="line"/>
      <point x="311" y="431" type="line"/>
      <point x="311" y="190" type="line"/>
      <point x="256" y="157"/>
      <point x="211" y="144"/>
      <point x="175" y="144" type="curve" smooth="yes"/>
      <point x="160" y="144"/>
      <point x="149" y="148"/>
      <point x="142" y="154" type="curve"/>
      <point x="184" y="204"/>
      <point x="207" y="236"/>
      <point x="207" y="289" type="curve" smooth="yes"/>
      <point x="207" y="340"/>
      <point x="181" y="395"/>
      <point x="135" y="439" type="curve"/>
      <point x="82" y="439"/>
      <point x="55" y="414"/>
      <point x="49" y="391" type="curve"/>
      <point x="110" y="315" type="line"/>
      <point x="104" y="295"/>
      <point x="94" y="278"/>
      <point x="58" y="223" type="curve" smooth="yes"/>
      <point x="33" y="185"/>
      <point x="33" y="179"/>
      <point x="33" y="168" type="curve" smooth="yes"/>
      <point x="33" y="124"/>
      <point x="102" y="67"/>
      <point x="193" y="67" type="curve" smooth="yes"/>
      <point x="241" y="67"/>
      <point x="273" y="75"/>
      <point x="312" y="89" type="curve"/>
      <point x="315" y="87" type="line"/>
      <point x="311" y="23" type="line"/>
      <point x="311" y="0" type="line"/>
    </contour>
  </outline>
</glyph>
<glyph name="grSix" format="1">
  <advance width="423"/>
  <unicode hex="0A6C"/>
  <outline>
    <contour>
      <point x="390" y="30" type="curve"/>
      <point x="368" y="103" type="line"/>
      <point x="167" y="70" type="line"/>
      <point x="157" y="83"/>
      <point x="152" y="100"/>
      <point x="152" y="117" type="curve" smooth="yes"/>
      <point x="152" y="136"/>
      <point x="157" y="157"/>
      <point x="166" y="174" type="curve"/>
      <point x="205" y="164"/>
      <point x="245" y="158"/>
      <point x="284" y="158" type="curve" smooth="yes"/>
      <point x="337" y="158"/>
      <point x="364" y="181"/>
      <point x="364" y="217" type="curve" smooth="yes"/>
      <point x="364" y="234"/>
      <point x="359" y="252"/>
      <point x="350" y="266" type="curve"/>
      <point x="174" y="247" type="line"/>
      <point x="165" y="258"/>
      <point x="159" y="273"/>
      <point x="159" y="289" type="curve" smooth="yes"/>
      <point x="159" y="318"/>
      <point x="178" y="344"/>
      <point x="214" y="359" type="curve"/>
      <point x="246" y="329"/>
      <point x="277" y="316"/>
      <point x="307" y="316" type="curve" smooth="yes"/>
      <point x="347" y="316"/>
      <point x="365" y="347"/>
      <point x="365" y="386" type="curve" smooth="yes"/>
      <point x="365" y="397"/>
      <point x="363" y="410"/>
      <point x="360" y="423" type="curve"/>
      <point x="265" y="432" type="line"/>
      <point x="265" y="437"/>
      <point x="265" y="443"/>
      <point x="265" y="447" type="curve" smooth="yes"/>
      <point x="265" y="473"/>
      <point x="289" y="492"/>
      <point x="335" y="499" type="curve"/>
      <point x="335" y="589" type="line"/>
      <point x="323" y="592"/>
      <point x="310" y="594"/>
      <point x="298" y="594" type="curve" smooth="yes"/>
      <point x="231" y="594"/>
      <point x="168" y="549"/>
      <point x="168" y="477" type="curve" smooth="yes"/>
      <point x="168" y="459"/>
      <point x="173" y="440"/>
      <point x="180" y="423" type="curve"/>
      <point x="86" y="396"/>
      <point x="50" y="349"/>
      <point x="50" y="297" type="curve" smooth="yes"/>
      <point x="50" y="266"/>
      <point x="64" y="242"/>
      <point x="95" y="219" type="curve"/>
      <point x="55" y="191"/>
      <point x="36" y="155"/>
      <point x="36" y="113" type="curve" smooth="yes"/>
      <point x="36" y="43"/>
      <point x="95" y="-7"/>
      <point x="211" y="-7" type="curve" smooth="yes"/>
      <point x="279" y="-7"/>
      <point x="339" y="9"/>
    </contour>
  </outline>
</glyph>
<glyph name="grSeven" format="1">
  <advance width="388"/>
  <unicode hex="0A6D"/>
  <outline>
    <contour>
      <point x="154" y="323" type="curve" smooth="yes"/>
      <point x="154" y="348"/>
      <point x="174" y="364"/>
      <point x="197" y="364" type="curve" smooth="yes"/>
      <point x="211" y="364"/>
      <point x="223" y="363"/>
      <point x="236" y="359" type="curve"/>
      <point x="244" y="336"/>
      <point x="248" y="310"/>
      <point x="248" y="287" type="curve" smooth="yes"/>
      <point x="248" y="178"/>
      <point x="177" y="121"/>
      <point x="22" y="72" type="curve"/>
      <point x="37" y="-4" type="line"/>
      <point x="239" y="19"/>
      <point x="359" y="129"/>
      <point x="359" y="273" type="curve" smooth="yes"/>
      <point x="359" y="373"/>
      <point x="288" y="451"/>
      <point x="184" y="451" type="curve" smooth="yes"/>
      <point x="94" y="451"/>
      <point x="36" y="397"/>
      <point x="38" y="323" type="curve" smooth="yes"/>
      <point x="39" y="263"/>
      <point x="80" y="232"/>
      <point x="136" y="201" type="curve"/>
      <point x="195" y="262" type="line"/>
      <point x="171" y="280"/>
      <point x="154" y="298"/>
    </contour>
  </outline>
</glyph>
<glyph name="grEight" format="1">
  <advance width="413"/>
  <unicode hex="0A6E"/>
  <outline>
    <contour>
      <point x="399" y="67" type="curve"/>
      <point x="357" y="119" type="line"/>
      <point x="260" y="76" type="line"/>
      <point x="190" y="88"/>
      <point x="170" y="147"/>
      <point x="170" y="241" type="curve" smooth="yes"/>
      <point x="170" y="266"/>
      <point x="171" y="292"/>
      <point x="173" y="321" type="curve"/>
      <point x="370" y="321" type="line"/>
      <point x="383" y="405" type="line"/>
      <point x="149" y="405" type="line"/>
      <point x="83" y="472" type="line"/>
      <point x="51" y="472"/>
      <point x="23" y="447"/>
      <point x="15" y="411" type="curve"/>
      <point x="24" y="377"/>
      <point x="46" y="349"/>
      <point x="80" y="331" type="curve"/>
      <point x="67" y="291"/>
      <point x="62" y="252"/>
      <point x="62" y="217" type="curve" smooth="yes"/>
      <point x="62" y="86"/>
      <point x="138" y="-4"/>
      <point x="265" y="-4" type="curve" smooth="yes"/>
      <point x="322" y="-4"/>
      <point x="368" y="25"/>
    </contour>
  </outline>
</glyph>
<glyph name="grNine" format="1">
  <advance width="413"/>
  <unicode hex="0A6F"/>
  <outline>
    <contour>
      <point x="399" y="67" type="curve"/>
      <point x="357" y="119" type="line"/>
      <point x="260" y="76" type="line"/>
      <point x="190" y="88"/>
      <point x="170" y="147"/>
      <point x="170" y="241" type="curve" smooth="yes"/>
      <point x="170" y="266"/>
      <point x="171" y="292"/>
      <point x="173" y="321" type="curve"/>
      <point x="370" y="321" type="line"/>
      <point x="383" y="405" type="line"/>
      <point x="316" y="410" type="line"/>
      <point x="297" y="419"/>
      <point x="287" y="431"/>
      <point x="287" y="452" type="curve" smooth="yes"/>
      <point x="287" y="482"/>
      <point x="309" y="497"/>
      <point x="334" y="500" type="curve"/>
      <point x="383" y="491" type="line"/>
      <point x="397" y="579" type="line"/>
      <point x="352" y="591"/>
      <point x="336" y="594"/>
      <point x="305" y="594" type="curve" smooth="yes"/>
      <point x="252" y="594"/>
      <point x="178" y="568"/>
      <point x="178" y="498" type="curve" smooth="yes"/>
      <point x="178" y="462"/>
      <point x="192" y="442"/>
      <point x="239" y="408" type="curve"/>
      <point x="237" y="405" type="line"/>
      <point x="149" y="405" type="line"/>
      <point x="83" y="472" type="line"/>
      <point x="51" y="472"/>
      <point x="23" y="447"/>
      <point x="15" y="411" type="curve"/>
      <point x="24" y="377"/>
      <point x="46" y="349"/>
      <point x="80" y="331" type="curve"/>
      <point x="67" y="291"/>
      <point x="62" y="252"/>
      <point x="62" y="217" type="curve" smooth="yes"/>
      <point x="62" y="86"/>
      <point x="138" y="-4"/>
      <point x="265" y="-4" type="curve" smooth="yes"/>
      <point x="322" y="-4"/>
      <point x="368" y="25"/>
    </contour>
  </outline>
</glyph>
<glyph name="grTippi" format="1">
  <unicode hex="0A70"/>
  <outline>
    <contour>
      <point x="-138" y="480" type="line"/>
      <point x="-142" y="489"/>
      <point x="-144" y="498"/>
      <point x="-144" y="507" type="curve" smooth="yes"/>
      <point x="-144" y="535"/>
      <point x="-122" y="554"/>
      <point x="-83" y="554" type="curve" smooth="yes"/>
      <point x="-71" y="554"/>
      <point x="-59" y="552"/>
      <point x="-48" y="548" type="curve"/>
      <point x="-46" y="543"/>
      <point x="-44" y="535"/>
      <point x="-44" y="526" type="curve" smooth="yes"/>
      <point x="-44" y="512"/>
      <point x="-48" y="494"/>
      <point x="-55" y="480" type="curve"/>
      <point x="4" y="480" type="line"/>
      <point x="16" y="500"/>
      <point x="23" y="521"/>
      <point x="23" y="544" type="curve" smooth="yes"/>
      <point x="23" y="603"/>
      <point x="-25" y="640"/>
      <point x="-96" y="640" type="curve" smooth="yes"/>
      <point x="-168" y="640"/>
      <point x="-216" y="603"/>
      <point x="-216" y="544" type="curve" smooth="yes"/>
      <point x="-216" y="521"/>
      <point x="-209" y="500"/>
      <point x="-197" y="480" type="curve"/>
    </contour>
    <contour>
      <point x="-95" y="447" type="move" name="_top"/>
    </contour>
  </outline>
</glyph>
<glyph name="grAddak" format="1">
  <unicode hex="0A71"/>
  <outline>
    <contour>
      <point x="30" y="596" type="curve"/>
      <point x="-14" y="619" type="line"/>
      <point x="-52" y="573"/>
      <point x="-77" y="564"/>
      <point x="-125" y="564" type="curve"/>
      <point x="-144" y="580"/>
      <point x="-162" y="599"/>
      <point x="-176" y="619" type="curve"/>
      <point x="-220" y="596" type="line"/>
      <point x="-211" y="532"/>
      <point x="-165" y="481"/>
      <point x="-95" y="481" type="curve" smooth="yes"/>
      <point x="-25" y="481"/>
      <point x="21" y="532"/>
    </contour>
    <contour>
      <point x="-95" y="447" type="move" name="_top"/>
    </contour>
  </outline>
</glyph>
<glyph name="grIri" format="1">
  <advance width="422"/>
  <unicode hex="0A72"/>
  <outline>
    <contour>
      <point x="400" y="81" type="curve"/>
      <point x="342" y="131" type="line"/>
      <point x="271" y="96"/>
      <point x="231" y="80"/>
      <point x="154" y="80" type="curve"/>
      <point x="150" y="99"/>
      <point x="148" y="112"/>
      <point x="148" y="130" type="curve" smooth="yes"/>
      <point x="148" y="170"/>
      <point x="172" y="184"/>
      <point x="205" y="184" type="curve" smooth="yes"/>
      <point x="378" y="184" type="line"/>
      <point x="378" y="363" type="line"/>
      <point x="451" y="363" type="line"/>
      <point x="451" y="447" type="line"/>
      <point x="-29" y="447" type="line"/>
      <point x="-29" y="363" type="line"/>
      <point x="36" y="363" type="line"/>
      <point x="38" y="309"/>
      <point x="62" y="274"/>
      <point x="96" y="253" type="curve"/>
      <point x="96" y="249" type="line"/>
      <point x="53" y="231"/>
      <point x="39" y="196"/>
      <point x="39" y="161" type="curve" smooth="yes"/>
      <point x="39" y="62"/>
      <point x="151" y="0"/>
      <point x="243" y="0" type="curve" smooth="yes"/>
      <point x="307" y="0"/>
      <point x="362" y="22"/>
    </contour>
    <contour>
      <point x="148" y="363" type="curve"/>
      <point x="270" y="363" type="line"/>
      <point x="270" y="268" type="line"/>
      <point x="170" y="268" type="line"/>
      <point x="156" y="295"/>
      <point x="148" y="323"/>
    </contour>
    <contour>
      <point x="324" y="447" type="move" name="top"/>
    </contour>
  </outline>
</glyph>
<glyph name="grUra" format="1">
  <advance width="498"/>
  <unicode hex="0A73"/>
  <outline>
    <contour>
      <point x="438" y="119" type="curve" smooth="yes"/>
      <point x="438" y="179"/>
      <point x="398" y="231"/>
      <point x="348" y="257" type="curve"/>
      <point x="300" y="214" type="line"/>
      <point x="317" y="195"/>
      <point x="326" y="170"/>
      <point x="326" y="147" type="curve" smooth="yes"/>
      <point x="326" y="109"/>
      <point x="306" y="80"/>
      <point x="196" y="80" type="curve"/>
      <point x="162" y="149"/>
      <point x="145" y="236"/>
      <point x="145" y="316" type="curve" smooth="yes"/>
      <point x="145" y="460"/>
      <point x="186" y="547"/>
      <point x="276" y="547" type="curve" smooth="yes"/>
      <point x="302" y="547"/>
      <point x="327" y="539"/>
      <point x="349" y="529" type="curve"/>
      <point x="357" y="497"/>
      <point x="362" y="462"/>
      <point x="362" y="425" type="curve"/>
      <point x="471" y="425" type="line"/>
      <point x="456" y="565"/>
      <point x="360" y="623"/>
      <point x="257" y="623" type="curve" smooth="yes"/>
      <point x="114" y="623"/>
      <point x="32" y="494"/>
      <point x="32" y="322" type="curve" smooth="yes"/>
      <point x="32" y="161"/>
      <point x="115" y="-4"/>
      <point x="289" y="-4" type="curve" smooth="yes"/>
      <point x="388" y="-4"/>
      <point x="438" y="54"/>
    </contour>
    <contour>
      <point x="263" y="194" type="line" smooth="yes"/>
      <point x="406" y="195"/>
      <point x="471" y="281"/>
      <point x="471" y="376" type="curve"/>
      <point x="363" y="376" type="line"/>
      <point x="363" y="327"/>
      <point x="346" y="277"/>
      <point x="263" y="277" type="curve" smooth="yes"/>
      <point x="112" y="277" type="line"/>
      <point x="112" y="194" type="line"/>
    </contour>
    <contour>
      <point x="527" y="363" type="line"/>
      <point x="527" y="447" type="line"/>
      <point x="-29" y="447" type="line"/>
      <point x="-29" y="363" type="line"/>
    </contour>
    <contour>
      <point x="253" y="0" type="move" name="bottom"/>
    </contour>
  </outline>
</glyph>
<glyph name="grEkonkar" format="1">
  <advance width="948"/>
  <unicode hex="0A74"/>
  <outline>
    <contour>
      <point x="877" y="119" type="curve" smooth="yes"/>
      <point x="877" y="179"/>
      <point x="837" y="231"/>
      <point x="787" y="257" type="curve"/>
      <point x="740" y="214" type="line"/>
      <point x="756" y="195"/>
      <point x="765" y="170"/>
      <point x="765" y="147" type="curve" smooth="yes"/>
      <point x="765" y="109"/>
      <point x="745" y="80"/>
      <point x="635" y="80" type="curve"/>
      <point x="604" y="140"/>
      <point x="584" y="215"/>
      <point x="584" y="309" type="curve" smooth="yes"/>
      <point x="584" y="467"/>
      <point x="645" y="544"/>
      <point x="732" y="544" type="curve" smooth="yes"/>
      <point x="779" y="544"/>
      <point x="813" y="524"/>
      <point x="857" y="493" type="curve"/>
      <point x="898" y="511" type="line"/>
      <point x="893" y="525"/>
      <point x="891" y="537"/>
      <point x="891" y="548" type="curve" smooth="yes"/>
      <point x="891" y="585"/>
      <point x="913" y="609"/>
      <point x="948" y="609" type="curve" smooth="yes"/>
      <point x="958" y="609"/>
      <point x="968" y="608"/>
      <point x="982" y="603" type="curve"/>
      <point x="1040" y="553" type="line"/>
      <point x="1085" y="587" type="line"/>
      <point x="1039" y="674"/>
      <point x="989" y="713"/>
      <point x="924" y="713" type="curve" smooth="yes"/>
      <point x="863" y="713"/>
      <point x="832" y="678"/>
      <point x="832" y="623" type="curve" smooth="yes"/>
      <point x="832" y="613"/>
      <point x="834" y="602"/>
      <point x="836" y="591" type="curve"/>
      <point x="834" y="589" type="line"/>
      <point x="799" y="608"/>
      <point x="763" y="623"/>
      <point x="712" y="623" type="curve" smooth="yes"/>
      <point x="591" y="623"/>
      <point x="471" y="518"/>
      <point x="471" y="315" type="curve" smooth="yes"/>
      <point x="471" y="161"/>
      <point x="555" y="-4"/>
      <point x="728" y="-4" type="curve" smooth="yes"/>
      <point x="827" y="-4"/>
      <point x="877" y="54"/>
    </contour>
    <contour>
      <point x="703" y="194" type="line" smooth="yes"/>
      <point x="845" y="195"/>
      <point x="911" y="281"/>
      <point x="911" y="376" type="curve"/>
      <point x="802" y="376" type="line"/>
      <point x="802" y="327"/>
      <point x="785" y="277"/>
      <point x="703" y="277" type="curve" smooth="yes"/>
      <point x="552" y="277" type="line"/>
      <point x="552" y="194" type="line"/>
    </contour>
    <contour>
      <point x="948" y="363" type="line"/>
      <point x="948" y="447" type="line"/>
      <point x="428" y="447" type="line"/>
      <point x="428" y="363" type="line"/>
    </contour>
    <component base="grOne" xOffset="15"/>
  </outline>
</glyph>
<glyph name="grYakash" format="1">
  <unicode hex="0A75"/>
  <outline>
    <contour>
      <point x="102" y="-226" type="curve"/>
      <point x="76" y="-159" type="line"/>
      <point x="38" y="-176"/>
      <point x="8" y="-186"/>
      <point x="-24" y="-189" type="curve"/>
      <point x="-36" y="-171"/>
      <point x="-41" y="-144"/>
      <point x="-41" y="-101" type="curve" smooth="yes"/>
      <point x="-41" y="-49" type="line"/>
      <point x="-149" y="-49" type="line"/>
      <point x="-149" y="-109" type="line" smooth="yes"/>
      <point x="-149" y="-202"/>
      <point x="-75" y="-249"/>
      <point x="-2" y="-249" type="curve" smooth="yes"/>
      <point x="37" y="-249"/>
      <point x="69" y="-241"/>
    </contour>
    <contour>
      <point x="-95" y="0" type="move" name="_bottom"/>
    </contour>
  </outline>
</glyph>
<glyph name="endash" format="1">
  <advance width="384"/>
  <unicode hex="2013"/>
  <note>
    endash
  </note>
  <outline>
    <contour>
      <point x="355" y="123" type="line"/>
      <point x="355" y="223" type="line"/>
      <point x="29" y="223" type="line"/>
      <point x="29" y="123" type="line"/>
    </contour>
  </outline>
</glyph>
<glyph name="quotedblleft" format="1">
  <advance width="372"/>
  <unicode hex="201C"/>
  <note>
    quotedblleft
  </note>
  <outline>
    <contour>
      <point x="325" y="309" type="curve"/>
      <point x="325" y="382" type="line"/>
      <point x="286" y="382" type="line"/>
      <point x="289" y="402"/>
      <point x="294" y="417"/>
      <point x="308" y="439" type="curve"/>
      <point x="239" y="454" type="line"/>
      <point x="214" y="429"/>
      <point x="196" y="394"/>
      <point x="196" y="361" type="curve" smooth="yes"/>
      <point x="196" y="319"/>
      <point x="218" y="299"/>
      <point x="263" y="299" type="curve" smooth="yes"/>
      <point x="285" y="299"/>
      <point x="309" y="303"/>
    </contour>
    <contour>
      <point x="176" y="309" type="curve"/>
      <point x="176" y="382" type="line"/>
      <point x="138" y="382" type="line"/>
      <point x="140" y="402"/>
      <point x="146" y="417"/>
      <point x="160" y="439" type="curve"/>
      <point x="90" y="454" type="line"/>
      <point x="65" y="429"/>
      <point x="47" y="394"/>
      <point x="47" y="361" type="curve" smooth="yes"/>
      <point x="47" y="319"/>
      <point x="69" y="299"/>
      <point x="115" y="299" type="curve" smooth="yes"/>
      <point x="136" y="299"/>
      <point x="160" y="303"/>
    </contour>
  </outline>
</glyph>
<glyph name="guilsinglleft" format="1">
  <advance width="276"/>
  <unicode hex="2039"/>
  <note>
    guilsinglleft
  </note>
  <outline>
    <contour>
      <point x="225" y="77" type="line"/>
      <point x="146" y="189" type="line"/>
      <point x="225" y="302" type="line"/>
      <point x="141" y="333" type="line"/>
      <point x="33" y="189" type="line"/>
      <point x="141" y="46" type="line"/>
    </contour>
  </outline>
</glyph>
<glyph name="guilsinglright" format="1">
  <advance width="257"/>
  <unicode hex="203A"/>
  <note>
    guilsinglright
  </note>
  <outline>
    <contour>
      <point x="224" y="189" type="line"/>
      <point x="115" y="333" type="line"/>
      <point x="32" y="302" type="line"/>
      <point x="111" y="189" type="line"/>
      <point x="32" y="77" type="line"/>
      <point x="115" y="46" type="line"/>
    </contour>
  </outline>
</glyph>
<glyph name="uni207D" format="1">
  <advance width="192"/>
  <unicode hex="207D"/>
  <note>
    uni207D
  </note>
  <outline>
    <contour>
      <point x="156" y="223" type="curve"/>
      <point x="156" y="291" type="line"/>
      <point x="124" y="291" type="line"/>
      <point x="124" y="471" type="line"/>
      <point x="156" y="471" type="line"/>
      <point x="156" y="539" type="line"/>
      <point x="144" y="542"/>
      <point x="125" y="544"/>
      <point x="108" y="544" type="curve"/>
      <point x="90" y="539"/>
      <point x="41" y="518"/>
      <point x="40" y="504" type="curve"/>
      <point x="40" y="259" type="line"/>
      <point x="41" y="244"/>
      <point x="90" y="224"/>
      <point x="108" y="219" type="curve"/>
      <point x="125" y="219"/>
      <point x="144" y="221"/>
    </contour>
  </outline>
</glyph>
<glyph name="grHAc2" format="1">
  <outline>
    <contour>
      <point x="-41" y="-195" type="curve" smooth="yes"/>
      <point x="-41" y="-49" type="line"/>
      <point x="-149" y="-49" type="line"/>
      <point x="-149" y="-195" type="line" smooth="yes"/>
      <point x="-149" y="-217"/>
      <point x="-158" y="-228"/>
      <point x="-175" y="-228" type="curve"/>
      <point x="-204" y="-216"/>
      <point x="-222" y="-198"/>
      <point x="-222" y="-175" type="curve" smooth="yes"/>
      <point x="-222" y="-154"/>
      <point x="-209" y="-145"/>
      <point x="-187" y="-145" type="curve"/>
      <point x="-187" y="-87" type="line"/>
      <point x="-281" y="-87"/>
      <point x="-323" y="-120"/>
      <point x="-323" y="-168" type="curve" smooth="yes"/>
      <point x="-323" y="-233"/>
      <point x="-233" y="-286"/>
      <point x="-149" y="-286" type="curve" smooth="yes"/>
      <point x="-79" y="-286"/>
      <point x="-41" y="-254"/>
    </contour>
    <contour>
      <point x="-95" y="0" type="move" name="_bottom"/>
    </contour>
  </outline>
</glyph>
<glyph name="grRAc2" format="1">
  <outline>
    <contour>
      <point x="96" y="-258" type="line"/>
      <point x="51" y="-185"/>
      <point x="8" y="-138"/>
      <point x="-52" y="-110" type="curve"/>
      <point x="-95" y="-182" type="line"/>
      <point x="64" y="-286" type="line"/>
    </contour>
    <contour>
      <point x="-40" y="-74" type="curve" smooth="yes"/>
      <point x="-40" y="-66"/>
      <point x="-41" y="-58"/>
      <point x="-42" y="-49" type="curve"/>
      <point x="-149" y="-49" type="line"/>
      <point x="-152" y="-98" type="line"/>
      <point x="-175" y="-112"/>
      <point x="-194" y="-134"/>
      <point x="-204" y="-158" type="curve"/>
      <point x="-194" y="-182"/>
      <point x="-175" y="-200"/>
      <point x="-153" y="-215" type="curve"/>
      <point x="-83" y="-192"/>
      <point x="-40" y="-139"/>
    </contour>
  </outline>
</glyph>
<glyph name="grYAc2" format="1">
  <advance width="502"/>
  <outline>
    <contour>
      <point x="461" y="0" type="line"/>
      <point x="461" y="380" type="line"/>
      <point x="352" y="380" type="line"/>
      <point x="352" y="285" type="line"/>
      <point x="220" y="285" type="line"/>
      <point x="191" y="202" type="line" smooth="yes"/>
      <point x="181" y="175"/>
      <point x="173" y="166"/>
      <point x="156" y="166" type="curve" smooth="yes"/>
      <point x="141" y="166"/>
      <point x="131" y="174"/>
      <point x="109" y="195" type="curve" smooth="yes"/>
      <point x="51" y="254" type="line"/>
      <point x="7" y="205" type="line"/>
      <point x="77" y="102"/>
      <point x="114" y="71"/>
      <point x="181" y="71" type="curve" smooth="yes"/>
      <point x="236" y="71"/>
      <point x="268" y="102"/>
      <point x="286" y="157" type="curve" smooth="yes"/>
      <point x="300" y="202" type="line"/>
      <point x="352" y="202" type="line"/>
      <point x="352" y="0" type="line"/>
    </contour>
    <contour>
      <point x="516" y="363" type="line"/>
      <point x="516" y="447" type="line"/>
      <point x="-15" y="447" type="line"/>
      <point x="-15" y="363" type="line"/>
    </contour>
  </outline>
</glyph>
<glyph name="grmUU.alt" format="1">
  <outline>
    <contour>
      <point x="-21" y="-334" type="curve"/>
      <point x="-51" y="-259" type="line"/>
      <point x="-98" y="-275"/>
      <point x="-133" y="-283"/>
      <point x="-175" y="-283" type="curve" smooth="yes"/>
      <point x="-215" y="-283"/>
      <point x="-262" y="-278"/>
      <point x="-344" y="-249" type="curve"/>
      <point x="-358" y="-310" type="line"/>
      <point x="-274" y="-357"/>
      <point x="-199" y="-365"/>
      <point x="-162" y="-365" type="curve" smooth="yes"/>
      <point x="-113" y="-365"/>
      <point x="-63" y="-356"/>
    </contour>
    <contour>
      <point x="-9" y="-458" type="curve"/>
      <point x="-40" y="-383" type="line"/>
      <point x="-89" y="-399"/>
      <point x="-125" y="-407"/>
      <point x="-170" y="-407" type="curve" smooth="yes"/>
      <point x="-212" y="-407"/>
      <point x="-261" y="-402"/>
      <point x="-347" y="-373" type="curve"/>
      <point x="-362" y="-434" type="line"/>
      <point x="-274" y="-481"/>
      <point x="-195" y="-489"/>
      <point x="-157" y="-489" type="curve" smooth="yes"/>
      <point x="-105" y="-489"/>
      <point x="-53" y="-480"/>
    </contour>
    <contour>
      <point x="-186" y="0" type="move" name="_bottom"/>
    </contour>
  </outline>
</glyph>
